<?xml version="1.0" encoding="UTF-8"?>
<svg width="16px" height="16px" viewBox="0 0 16 16" version="1.1" xmlns="http://www.w3.org/2000/svg" xmlns:xlink="http://www.w3.org/1999/xlink">
    <title>time</title>
    <g id="页面-1" stroke="none" stroke-width="1" fill="none" fill-rule="evenodd" fill-opacity="0.668952142">
        <g id="MacBook-Pro-13&quot;备份" transform="translate(-120, -417)" fill="#FFFFFF">
            <g id="编组" transform="translate(120, 414)">
                <g transform="translate(0, 3)" fill-rule="nonzero" id="time">
                    <path d="M7.99987255,0 C12.4111423,0 16,3.58877485 16,8 C16,12.411207 12.4111423,16 7.99987255,16 C3.58873025,16 0,12.4112252 0,8 C0,3.58877485 3.58873027,0 7.99987255,0 Z M7.99987255,1.2632087 C4.28525324,1.2632087 1.26320582,4.28533583 1.26320582,8.00000002 C1.26320582,11.7146096 4.28525324,14.7367185 7.99987255,14.7367185 C11.7146375,14.7367185 14.7367031,11.7146278 14.7367031,8.00000002 C14.7367031,4.28533585 11.7146375,1.2632087 7.99987255,1.2632087 Z M8.19253408,3.6 C8.52801864,3.6 8.8,3.89212909 8.8,4.25250315 L8.8,9.2 L5.40751846,9.2 C5.07198136,9.2 4.8,8.90787091 4.8,8.54749685 C4.8,8.18712279 5.07198138,7.89497487 5.40751846,7.89497487 L7.58505066,7.89497487 L7.58505066,4.25250315 C7.58505066,3.89212909 7.85704953,3.6 8.19253408,3.6 Z"></path>
                </g>
            </g>
        </g>
    </g>
</svg>