<?xml version="1.0" encoding="UTF-8"?>
<svg width="678px" height="72px" viewBox="0 0 678 72" version="1.1" xmlns="http://www.w3.org/2000/svg" xmlns:xlink="http://www.w3.org/1999/xlink">
    <title>主图</title>
    <g id="页面-1" stroke="none" stroke-width="1" fill="none" fill-rule="evenodd">
        <g id="MacBook-Pro-13&quot;备份" transform="translate(-120, -257)" fill="#FFFFFF">
            <g id="主图" transform="translate(120, 256.612)">
                <path d="M28.818,4.724 C25.93,4.724 23.574,5.674 21.826,7.65 C20.116,9.474 19.242,11.906 19.204,14.946 L23.346,14.946 C23.422,12.742 23.878,11.108 24.79,9.968 C25.664,8.79 26.956,8.22 28.666,8.22 C30.262,8.22 31.516,8.6 32.352,9.36 C33.188,10.12 33.606,11.26 33.606,12.78 C33.606,14.376 32.96,15.858 31.744,17.226 C30.984,18.024 29.692,19.05 27.868,20.342 C24.79,22.47 22.738,24.104 21.75,25.282 C19.926,27.334 19.052,29.69 19.052,32.388 L37.748,32.388 L37.748,28.74 L24.182,28.74 C24.752,27.258 26.5,25.548 29.426,23.61 C32.124,21.786 33.986,20.342 35.05,19.24 C36.798,17.302 37.71,15.174 37.71,12.818 C37.71,10.424 36.874,8.486 35.24,6.966 C33.568,5.446 31.402,4.724 28.818,4.724 Z M51.2,4.724 C48.008,4.724 45.538,6.054 43.79,8.752 C42.194,11.222 41.396,14.566 41.396,18.822 C41.396,23.04 42.194,26.384 43.79,28.892 C45.538,31.552 48.008,32.92 51.2,32.92 C54.392,32.92 56.862,31.552 58.61,28.892 C60.206,26.384 61.004,23.002 61.004,18.822 C61.004,14.604 60.206,11.26 58.61,8.752 C56.862,6.054 54.392,4.724 51.2,4.724 Z M51.2,8.22 C53.404,8.22 55,9.436 55.912,11.906 C56.558,13.578 56.9,15.896 56.9,18.822 C56.9,21.71 56.558,24.028 55.912,25.738 C55,28.17 53.404,29.424 51.2,29.424 C48.958,29.424 47.4,28.17 46.488,25.738 C45.804,24.028 45.5,21.71 45.5,18.822 C45.5,15.896 45.804,13.578 46.488,11.906 C47.4,9.436 48.958,8.22 51.2,8.22 Z M74.418,4.724 C71.53,4.724 69.174,5.674 67.426,7.65 C65.716,9.474 64.842,11.906 64.804,14.946 L68.946,14.946 C69.022,12.742 69.478,11.108 70.39,9.968 C71.264,8.79 72.556,8.22 74.266,8.22 C75.862,8.22 77.116,8.6 77.952,9.36 C78.788,10.12 79.206,11.26 79.206,12.78 C79.206,14.376 78.56,15.858 77.344,17.226 C76.584,18.024 75.292,19.05 73.468,20.342 C70.39,22.47 68.338,24.104 67.35,25.282 C65.526,27.334 64.652,29.69 64.652,32.388 L83.348,32.388 L83.348,28.74 L69.782,28.74 C70.352,27.258 72.1,25.548 75.026,23.61 C77.724,21.786 79.586,20.342 80.65,19.24 C82.398,17.302 83.31,15.174 83.31,12.818 C83.31,10.424 82.474,8.486 80.84,6.966 C79.168,5.446 77.002,4.724 74.418,4.724 Z M89.01,5.256 L87.528,20.456 L91.404,20.456 C91.936,19.468 92.658,18.746 93.646,18.29 C94.558,17.834 95.584,17.644 96.8,17.644 C98.624,17.644 99.992,18.176 100.98,19.24 C101.968,20.304 102.462,21.786 102.462,23.686 C102.462,25.434 101.892,26.802 100.752,27.866 C99.612,28.892 98.206,29.424 96.534,29.424 C95.014,29.424 93.798,29.082 92.886,28.398 C91.86,27.638 91.252,26.46 91.1,24.94 L87.034,24.94 C87.224,27.448 88.288,29.462 90.226,30.906 C91.974,32.236 94.064,32.92 96.496,32.92 C99.194,32.92 101.512,32.122 103.45,30.526 C105.502,28.74 106.566,26.46 106.566,23.648 C106.566,20.722 105.73,18.442 104.134,16.77 C102.538,15.098 100.448,14.262 97.902,14.262 C96.686,14.262 95.546,14.452 94.558,14.87 C93.456,15.25 92.506,15.858 91.67,16.732 L91.556,16.732 L92.354,8.904 L105.35,8.904 L105.35,5.256 L89.01,5.256 Z M121.69,5.256 L130.81,18.366 L121.044,32.388 L126.098,32.388 L133.356,21.634 L140.614,32.388 L145.668,32.388 L135.826,18.366 L145.022,5.256 L139.968,5.256 L133.356,15.06 L126.744,5.256 L121.69,5.256 Z M165.656,6.89 L168.962,6.89 C168.886,7.878 168.772,8.828 168.62,9.778 L163.148,9.778 C164.022,8.98 164.858,8.03 165.656,6.89 Z M167.632,13.084 L167.556,13.236 C166.34,15.744 163.794,17.834 159.842,19.582 L162.274,22.508 C163.414,21.976 164.44,21.368 165.428,20.76 L165.428,36.378 L169.038,36.378 L169.038,34.896 L186.974,34.896 L186.974,36.378 L190.622,36.378 L190.622,20.228 L176.106,20.228 L178.348,17.948 C176.372,16.504 174.016,15.06 171.204,13.616 C171.242,13.464 171.28,13.274 171.356,13.084 L178.918,13.084 L178.918,9.778 L172.116,9.778 C172.268,8.866 172.344,7.916 172.42,6.89 L177.854,6.89 L177.854,3.698 L167.442,3.698 C167.746,3.014 168.05,2.33 168.316,1.57 L165.086,0.886 C163.794,3.774 162.236,5.978 160.488,7.536 L162.274,9.778 L160.564,9.778 L160.564,13.084 L167.632,13.084 Z M169.038,31.704 L169.038,29.196 L186.974,29.196 L186.974,31.704 L169.038,31.704 Z M169.038,26.08 L169.038,23.42 L186.974,23.42 L186.974,26.08 L169.038,26.08 Z M166.188,20.228 C167.822,19.012 169.114,17.682 170.026,16.238 C172.23,17.606 174.016,18.936 175.46,20.228 L166.188,20.228 Z M180.096,3.736 L180.096,18.1 L193.396,18.1 L193.396,3.736 L180.096,3.736 Z M189.862,14.946 L183.63,14.946 L183.63,6.928 L189.862,6.928 L189.862,14.946 Z M203.808,23.496 L211.636,23.496 L211.636,26.27 L203.808,26.27 L203.808,23.496 Z M211.636,20.532 L203.808,20.532 L203.808,17.606 L211.636,17.606 L211.636,20.532 Z M203.808,29.272 L211.636,29.272 L211.636,31.4 C211.636,32.388 211.18,32.882 210.306,32.882 L207.608,32.73 L208.482,36.112 L211.446,36.112 C213.878,36.112 215.132,34.782 215.132,32.16 L215.132,14.452 L200.312,14.452 L200.312,36.378 L203.808,36.378 L203.808,29.272 Z M228.09,18.062 C229.458,18.062 230.484,17.758 231.168,17.188 C231.852,16.542 232.384,14.642 232.688,11.488 L229.306,10.386 C229.23,12.514 229.002,13.806 228.698,14.262 C228.432,14.642 228.014,14.832 227.406,14.832 L222.884,14.832 C221.972,14.832 221.516,14.186 221.516,12.97 L221.516,9.17 C225.582,8.562 229.154,7.878 232.27,7.156 L231.092,3.964 C228.622,4.648 225.43,5.256 221.516,5.864 L221.516,1.38 L217.944,1.38 L217.944,13.73 C217.944,16.618 219.236,18.062 221.896,18.062 L228.09,18.062 Z M221.516,26.84 C225.316,26.46 228.926,25.852 232.27,24.94 L231.092,21.71 C228.28,22.546 225.088,23.192 221.516,23.572 L221.516,19.392 L217.944,19.392 L217.944,32.274 C217.944,34.554 219.236,35.732 221.82,35.732 L228.128,35.732 C229.534,35.732 230.56,35.428 231.206,34.858 C231.89,34.25 232.384,32.35 232.688,29.158 L229.42,28.094 C229.306,30.222 229.078,31.514 228.774,31.97 C228.508,32.312 228.052,32.502 227.444,32.502 L222.846,32.502 C221.934,32.502 221.516,32.16 221.516,31.476 L221.516,26.84 Z M212.396,3.888 L209.622,5.636 C210.382,6.738 211.104,7.802 211.788,8.866 C208.71,9.246 205.822,9.55 203.162,9.702 C205.138,7.802 206.924,5.332 208.52,2.216 L205.062,1.19 C203.846,3.774 202.06,6.358 199.742,8.942 C199.286,9.322 198.754,9.626 198.108,9.854 L199.096,12.856 C204.644,12.552 209.394,12.096 213.346,11.488 C213.802,12.286 214.22,13.084 214.6,13.844 L217.564,11.716 C216.348,9.512 214.638,6.89 212.396,3.888 Z M236.716,10.918 L236.716,14.414 L250.662,14.414 C248.648,23.306 243.708,29.69 235.88,33.49 L238.198,36.53 C245.912,32.464 251.042,26.08 253.55,17.378 C256.438,25.434 261.568,31.704 268.864,36.188 L271.106,33.262 C263.582,28.816 258.452,22.546 255.792,14.414 L270.308,14.414 L270.308,10.918 L254.88,10.918 C255.184,8.638 255.336,6.244 255.336,3.736 L255.336,1.266 L251.688,1.266 L251.688,4.572 C251.65,6.776 251.498,8.904 251.27,10.918 L236.716,10.918 Z M290.182,1.152 C285.774,6.13 280.226,10.272 273.576,13.616 L275.514,17.112 C277.87,15.82 280.074,14.452 282.126,13.008 L282.126,16.01 L301.012,16.01 L301.012,13.16 C302.988,14.604 305.078,15.896 307.358,17.074 L309.334,13.578 C303.102,10.538 297.63,6.396 292.842,1.152 L290.182,1.152 Z M282.696,12.59 C286.116,10.12 289.042,7.384 291.512,4.382 C294.058,7.422 296.984,10.158 300.252,12.59 L282.696,12.59 Z M276.16,20.228 L276.16,23.724 L285.052,23.724 C283.608,26.384 281.86,28.892 279.808,31.286 C279.428,31.704 278.82,32.046 277.946,32.274 L278.934,35.39 C287.826,34.858 295.236,34.136 301.126,33.224 C301.848,34.25 302.532,35.276 303.178,36.264 L306.18,34.136 C304.28,31.362 301.62,28.094 298.162,24.332 L295.35,26.118 C296.718,27.638 297.972,29.12 299.112,30.602 C294.02,31.21 288.776,31.666 283.304,31.97 C285.546,29.614 287.522,26.878 289.232,23.724 L306.94,23.724 L306.94,20.228 L276.16,20.228 Z M24.2,55.828 C22.76,55.828 21.58,56.308 20.7,57.268 C19.82,58.208 19.36,59.488 19.36,61.088 L21,61.088 C21.02,59.828 21.32,58.868 21.88,58.228 C22.4,57.548 23.16,57.228 24.14,57.228 C25.06,57.228 25.8,57.468 26.32,57.948 C26.84,58.428 27.1,59.088 27.1,59.968 C27.1,60.888 26.72,61.748 26,62.528 C25.62,62.928 24.88,63.508 23.76,64.308 C22.24,65.348 21.22,66.208 20.66,66.848 C19.7,67.908 19.24,69.088 19.24,70.388 L28.76,70.388 L28.76,68.928 L21.26,68.928 C21.52,67.968 22.56,66.868 24.38,65.648 C25.86,64.648 26.84,63.868 27.34,63.348 C28.26,62.348 28.74,61.228 28.74,59.988 C28.74,58.748 28.3,57.728 27.46,56.968 C26.6,56.208 25.52,55.828 24.2,55.828 Z M39.126087,55.828 C37.406087,55.828 36.126087,56.568 35.266087,58.088 C34.506087,59.368 34.126087,61.088 34.126087,63.248 C34.126087,65.408 34.506087,67.128 35.266087,68.408 C36.126087,69.908 37.406087,70.668 39.126087,70.668 C40.826087,70.668 42.106087,69.908 42.986087,68.408 C43.746087,67.128 44.126087,65.408 44.126087,63.248 C44.126087,61.088 43.746087,59.368 42.986087,58.088 C42.106087,56.568 40.826087,55.828 39.126087,55.828 Z M39.126087,57.228 C40.406087,57.228 41.326087,57.908 41.886087,59.288 C42.286087,60.248 42.506087,61.568 42.506087,63.248 C42.506087,64.908 42.286087,66.228 41.886087,67.208 C41.326087,68.568 40.406087,69.268 39.126087,69.268 C37.846087,69.268 36.926087,68.568 36.366087,67.208 C35.966087,66.228 35.766087,64.908 35.766087,63.248 C35.766087,61.568 35.966087,60.248 36.366087,59.288 C36.926087,57.908 37.846087,57.228 39.126087,57.228 Z M54.452174,55.828 C53.012174,55.828 51.832174,56.308 50.952174,57.268 C50.072174,58.208 49.612174,59.488 49.612174,61.088 L51.252174,61.088 C51.272174,59.828 51.572174,58.868 52.132174,58.228 C52.652174,57.548 53.412174,57.228 54.392174,57.228 C55.312174,57.228 56.052174,57.468 56.572174,57.948 C57.092174,58.428 57.352174,59.088 57.352174,59.968 C57.352174,60.888 56.972174,61.748 56.252174,62.528 C55.872174,62.928 55.132174,63.508 54.012174,64.308 C52.492174,65.348 51.472174,66.208 50.912174,66.848 C49.952174,67.908 49.492174,69.088 49.492174,70.388 L59.012174,70.388 L59.012174,68.928 L51.512174,68.928 C51.772174,67.968 52.812174,66.868 54.632174,65.648 C56.112174,64.648 57.092174,63.868 57.592174,63.348 C58.512174,62.348 58.992174,61.228 58.992174,59.988 C58.992174,58.748 58.552174,57.728 57.712174,56.968 C56.852174,56.208 55.772174,55.828 54.452174,55.828 Z M65.478261,56.108 L64.718261,63.988 L66.278261,63.988 C66.558261,63.428 66.998261,62.988 67.558261,62.708 C68.098261,62.408 68.698261,62.268 69.378261,62.268 C70.418261,62.268 71.238261,62.568 71.818261,63.208 C72.418261,63.828 72.738261,64.708 72.738261,65.848 C72.738261,66.848 72.398261,67.668 71.758261,68.308 C71.098261,68.948 70.278261,69.268 69.278261,69.268 C68.398261,69.268 67.658261,69.048 67.098261,68.628 C66.458261,68.148 66.098261,67.448 66.018261,66.548 L64.398261,66.548 C64.498261,67.848 65.038261,68.888 66.038261,69.648 C66.918261,70.328 67.998261,70.668 69.258261,70.668 C70.658261,70.668 71.858261,70.228 72.818261,69.368 C73.838261,68.448 74.358261,67.268 74.358261,65.828 C74.358261,64.288 73.918261,63.088 73.078261,62.208 C72.238261,61.348 71.138261,60.928 69.778261,60.928 C69.118261,60.928 68.518261,61.028 67.958261,61.268 C67.338261,61.508 66.818261,61.868 66.418261,62.348 L66.338261,62.348 L66.818261,57.568 L73.778261,57.568 L73.778261,56.108 L65.478261,56.108 Z M88.770435,56.108 L93.650435,62.968 L88.390435,70.388 L90.410435,70.388 L94.650435,64.268 L98.910435,70.388 L100.930435,70.388 L95.630435,62.968 L100.550435,56.108 L98.530435,56.108 L94.650435,61.668 L90.790435,56.108 L88.770435,56.108 Z M105.156522,64.528 L105.156522,65.888 L115.256522,65.888 L115.256522,64.528 L105.156522,64.528 Z M125.002609,56.108 L119.382609,70.388 L121.142609,70.388 L122.662609,66.388 L129.222609,66.388 L130.742609,70.388 L132.522609,70.388 L126.902609,56.108 L125.002609,56.108 Z M123.182609,65.008 L125.922609,57.868 L126.002609,57.868 L128.702609,65.008 L123.182609,65.008 Z M143.188696,55.828 C141.088696,55.828 139.428696,56.568 138.208696,58.068 C137.048696,59.448 136.488696,61.188 136.488696,63.308 C136.488696,65.428 137.068696,67.168 138.228696,68.508 C139.468696,69.948 141.228696,70.668 143.488696,70.668 C144.668696,70.668 145.768696,70.508 146.808696,70.188 C147.788696,69.868 148.628696,69.448 149.308696,68.888 L149.308696,63.048 L143.208696,63.048 L143.208696,64.468 L147.688696,64.468 L147.688696,68.108 C147.188696,68.428 146.588696,68.708 145.888696,68.908 C145.168696,69.108 144.428696,69.228 143.648696,69.228 C141.788696,69.228 140.388696,68.668 139.448696,67.568 C138.568696,66.528 138.128696,65.108 138.128696,63.308 C138.128696,61.468 138.568696,60.008 139.488696,58.928 C140.408696,57.828 141.628696,57.288 143.188696,57.288 C144.448696,57.288 145.468696,57.588 146.248696,58.208 C146.988696,58.788 147.468696,59.608 147.688696,60.688 L149.328696,60.688 C149.068696,59.128 148.448696,57.948 147.448696,57.128 C146.388696,56.248 144.968696,55.828 143.188696,55.828 Z M155.294783,55.828 L155.294783,70.388 L156.874783,70.388 L156.874783,55.828 L155.294783,55.828 Z M178.946957,55.828 C176.746957,55.828 175.026957,56.568 173.826957,58.088 C172.726957,59.448 172.186957,61.188 172.186957,63.308 C172.186957,65.428 172.706957,67.148 173.786957,68.468 C174.966957,69.928 176.666957,70.668 178.886957,70.668 C180.406957,70.668 181.726957,70.228 182.826957,69.368 C184.006957,68.448 184.746957,67.148 185.066957,65.488 L183.486957,65.488 C183.206957,66.728 182.626957,67.668 181.786957,68.308 C180.986957,68.908 180.026957,69.208 178.886957,69.208 C177.206957,69.208 175.946957,68.648 175.066957,67.548 C174.226957,66.508 173.826957,65.088 173.826957,63.308 C173.826957,61.528 174.246957,60.108 175.086957,59.028 C175.986957,57.868 177.266957,57.288 178.926957,57.288 C180.046957,57.288 180.986957,57.548 181.766957,58.088 C182.566957,58.648 183.086957,59.448 183.286957,60.488 L184.866957,60.488 C184.666957,59.068 184.026957,57.928 182.946957,57.088 C181.866957,56.248 180.526957,55.828 178.946957,55.828 Z M194.893044,59.768 C193.333044,59.768 192.113044,60.288 191.193044,61.368 C190.313044,62.388 189.873044,63.668 189.873044,65.228 C189.873044,66.768 190.313044,68.048 191.193044,69.048 C192.113044,70.128 193.333044,70.668 194.893044,70.668 C196.433044,70.668 197.673044,70.128 198.613044,69.048 C199.473044,68.048 199.913044,66.768 199.913044,65.228 C199.913044,63.668 199.473044,62.388 198.593044,61.368 C197.673044,60.288 196.433044,59.768 194.893044,59.768 Z M194.893044,61.108 C195.973044,61.108 196.833044,61.528 197.473044,62.368 C198.013044,63.128 198.293044,64.068 198.293044,65.228 C198.293044,66.348 198.013044,67.308 197.473044,68.068 C196.833044,68.908 195.973044,69.328 194.893044,69.328 C193.793044,69.328 192.933044,68.908 192.333044,68.068 C191.773044,67.308 191.513044,66.368 191.513044,65.228 C191.513044,64.068 191.773044,63.128 192.333044,62.368 C192.933044,61.528 193.793044,61.108 194.893044,61.108 Z M209.959131,59.768 C209.279131,59.768 208.659131,59.928 208.099131,60.248 C207.539131,60.548 207.079131,60.988 206.719131,61.568 L206.719131,60.048 L205.119131,60.048 L205.119131,70.388 L206.719131,70.388 L206.719131,64.148 C206.779131,63.208 207.079131,62.468 207.639131,61.908 C208.159131,61.388 208.779131,61.128 209.499131,61.128 C211.299131,61.128 212.219131,62.128 212.219131,64.148 L212.219131,70.388 L213.819131,70.388 L213.819131,64.028 C213.819131,61.188 212.519131,59.768 209.959131,59.768 Z M223.565218,56.108 C222.685218,56.108 222.005218,56.348 221.545218,56.848 C221.105218,57.328 220.885218,57.988 220.885218,58.868 L220.885218,60.048 L218.285218,60.048 L218.285218,61.388 L220.885218,61.388 L220.885218,70.388 L222.485218,70.388 L222.485218,61.388 L225.405218,61.388 L225.405218,60.048 L222.485218,60.048 L222.485218,58.908 C222.485218,58.408 222.585218,58.048 222.785218,57.828 C222.985218,57.588 223.325218,57.488 223.765218,57.488 L225.545218,57.488 L225.545218,56.108 L223.565218,56.108 Z M234.271305,59.768 C232.771305,59.768 231.591305,60.308 230.711305,61.388 C229.831305,62.408 229.411305,63.688 229.411305,65.208 C229.411305,66.888 229.851305,68.208 230.771305,69.208 C231.651305,70.168 232.851305,70.668 234.331305,70.668 C235.671305,70.668 236.771305,70.268 237.631305,69.508 C238.331305,68.868 238.791305,68.068 239.031305,67.068 L237.431305,67.068 C237.171305,67.788 236.831305,68.328 236.391305,68.688 C235.871305,69.108 235.171305,69.328 234.331305,69.328 C233.351305,69.328 232.571305,69.008 232.011305,68.368 C231.451305,67.728 231.151305,66.828 231.071305,65.668 L239.231305,65.668 C239.191305,63.868 238.791305,62.448 238.031305,61.448 C237.191305,60.328 235.931305,59.768 234.271305,59.768 Z M234.311305,61.108 C236.271305,61.108 237.371305,62.208 237.571305,64.428 L231.111305,64.428 C231.211305,63.408 231.531305,62.608 232.091305,62.008 C232.651305,61.408 233.391305,61.108 234.311305,61.108 Z M248.777392,59.768 C248.057392,59.768 247.437392,59.988 246.897392,60.428 C246.457392,60.768 246.097392,61.248 245.817392,61.848 L245.817392,60.048 L244.237392,60.048 L244.237392,70.388 L245.817392,70.388 L245.817392,64.908 C245.817392,63.948 246.077392,63.128 246.637392,62.448 C247.177392,61.728 247.857392,61.388 248.657392,61.388 C249.157392,61.388 249.677392,61.448 250.197392,61.608 L250.197392,60.008 C249.817392,59.848 249.337392,59.768 248.777392,59.768 Z M258.923479,59.768 C257.423479,59.768 256.243479,60.308 255.363479,61.388 C254.483479,62.408 254.063479,63.688 254.063479,65.208 C254.063479,66.888 254.503479,68.208 255.423479,69.208 C256.303479,70.168 257.503479,70.668 258.983479,70.668 C260.323479,70.668 261.423479,70.268 262.283479,69.508 C262.983479,68.868 263.443479,68.068 263.683479,67.068 L262.083479,67.068 C261.823479,67.788 261.483479,68.328 261.043479,68.688 C260.523479,69.108 259.823479,69.328 258.983479,69.328 C258.003479,69.328 257.223479,69.008 256.663479,68.368 C256.103479,67.728 255.803479,66.828 255.723479,65.668 L263.883479,65.668 C263.843479,63.868 263.443479,62.448 262.683479,61.448 C261.843479,60.328 260.583479,59.768 258.923479,59.768 Z M258.963479,61.108 C260.923479,61.108 262.023479,62.208 262.223479,64.428 L255.763479,64.428 C255.863479,63.408 256.183479,62.608 256.743479,62.008 C257.303479,61.408 258.043479,61.108 258.963479,61.108 Z M273.729566,59.768 C273.049566,59.768 272.429566,59.928 271.869566,60.248 C271.309566,60.548 270.849566,60.988 270.489566,61.568 L270.489566,60.048 L268.889566,60.048 L268.889566,70.388 L270.489566,70.388 L270.489566,64.148 C270.549566,63.208 270.849566,62.468 271.409566,61.908 C271.929566,61.388 272.549566,61.128 273.269566,61.128 C275.069566,61.128 275.989566,62.128 275.989566,64.148 L275.989566,70.388 L277.589566,70.388 L277.589566,64.028 C277.589566,61.188 276.289566,59.768 273.729566,59.768 Z M287.655653,59.768 C286.115653,59.768 284.895653,60.308 284.015653,61.408 C283.195653,62.408 282.795653,63.688 282.795653,65.268 C282.795653,66.848 283.195653,68.128 284.015653,69.108 C284.875653,70.148 286.075653,70.668 287.635653,70.668 C288.915653,70.668 289.935653,70.328 290.715653,69.668 C291.515653,68.988 292.015653,67.968 292.255653,66.648 L290.655653,66.648 C290.415653,68.428 289.395653,69.328 287.635653,69.328 C286.595653,69.328 285.795653,68.948 285.255653,68.228 C284.695653,67.508 284.435653,66.508 284.435653,65.248 C284.435653,63.988 284.715653,62.988 285.275653,62.248 C285.855653,61.488 286.655653,61.108 287.655653,61.108 C288.475653,61.108 289.135653,61.288 289.655653,61.688 C290.155653,62.088 290.475653,62.688 290.615653,63.488 L292.195653,63.488 C292.015653,62.228 291.535653,61.288 290.735653,60.668 C289.955653,60.068 288.935653,59.768 287.655653,59.768 Z M301.52174,59.768 C300.02174,59.768 298.84174,60.308 297.96174,61.388 C297.08174,62.408 296.66174,63.688 296.66174,65.208 C296.66174,66.888 297.10174,68.208 298.02174,69.208 C298.90174,70.168 300.10174,70.668 301.58174,70.668 C302.92174,70.668 304.02174,70.268 304.88174,69.508 C305.58174,68.868 306.04174,68.068 306.28174,67.068 L304.68174,67.068 C304.42174,67.788 304.08174,68.328 303.64174,68.688 C303.12174,69.108 302.42174,69.328 301.58174,69.328 C300.60174,69.328 299.82174,69.008 299.26174,68.368 C298.70174,67.728 298.40174,66.828 298.32174,65.668 L306.48174,65.668 C306.44174,63.868 306.04174,62.448 305.28174,61.448 C304.44174,60.328 303.18174,59.768 301.52174,59.768 Z M301.56174,61.108 C303.52174,61.108 304.62174,62.208 304.82174,64.428 L298.36174,64.428 C298.46174,63.408 298.78174,62.608 299.34174,62.008 C299.90174,61.408 300.64174,61.108 301.56174,61.108 Z M0,4.388 L1,4.388 L1,70.388 L0,70.388 L0,4.388 Z M377.518,14.3 L377.518,17.15 L365.738,17.15 L363.914,26.574 L373.87,26.574 C371.59,28.702 367.638,30.678 362.09,32.426 L364.104,35.694 C370.374,33.3 374.858,30.488 377.518,27.22 L377.518,36.34 L381.014,36.34 L381.014,26.574 L391.122,26.574 C391.122,28.094 391.008,29.196 390.856,29.88 C390.628,30.602 389.982,30.982 388.918,30.982 C387.36,30.982 385.688,30.906 383.902,30.83 L384.776,34.25 C386.296,34.288 387.892,34.326 389.488,34.326 C391.768,34.288 393.212,33.642 393.858,32.35 C394.466,31.096 394.808,28.132 394.808,23.496 L381.014,23.496 L381.014,20.418 L393.44,20.418 L393.44,10.994 L365.016,10.994 L365.016,14.3 L377.518,14.3 Z M377.518,20.418 L377.518,23.496 L368.17,23.496 L368.93,20.418 L377.518,20.418 Z M381.014,17.15 L381.014,14.3 L389.754,14.3 L389.754,17.15 L381.014,17.15 Z M367.79,6.814 L369.766,6.814 C370.678,8.03 371.514,9.322 372.236,10.614 L375.466,9.436 C374.972,8.6 374.364,7.726 373.642,6.814 L379,6.814 L379,3.66 L369.538,3.66 C369.766,3.09 370.032,2.482 370.298,1.836 L366.802,1.076 C365.814,3.698 364.142,6.13 361.824,8.41 L364.978,10.348 C366.004,9.246 366.954,8.068 367.79,6.814 Z M383.94,6.662 L386.22,6.662 C387.208,7.916 388.044,9.246 388.728,10.614 L391.92,9.436 C391.426,8.562 390.78,7.65 390.02,6.662 L396.176,6.662 L396.176,3.508 L385.46,3.508 C385.65,2.976 385.84,2.406 386.068,1.836 L382.61,1.076 C381.736,3.698 380.292,6.168 378.278,8.448 L381.394,10.386 C382.344,9.246 383.18,7.992 383.94,6.662 Z M406.816,5.256 C405.904,6.244 404.764,7.118 403.396,7.954 C402.028,8.714 400.774,9.246 399.558,9.55 L399.558,13.654 C402.066,12.932 404.156,11.792 405.79,10.234 L405.79,32.388 L409.932,32.388 L409.932,5.256 L406.816,5.256 Z M424.904,4.724 C422.016,4.724 419.698,5.484 418.026,7.004 C416.506,8.372 415.746,10.082 415.746,12.096 C415.746,13.502 416.05,14.68 416.658,15.63 C417.342,16.656 418.368,17.416 419.736,17.948 L419.736,18.062 C418.406,18.366 417.304,19.126 416.392,20.342 C415.328,21.634 414.796,23.116 414.796,24.826 C414.796,27.22 415.67,29.158 417.418,30.678 C419.166,32.16 421.674,32.92 424.904,32.92 C428.096,32.92 430.604,32.16 432.39,30.678 C434.138,29.158 435.012,27.22 435.012,24.826 C435.012,23.116 434.48,21.634 433.416,20.342 C432.504,19.126 431.364,18.366 430.072,18.062 L430.072,17.948 C431.44,17.416 432.466,16.656 433.15,15.63 C433.758,14.68 434.062,13.502 434.062,12.096 C434.062,10.082 433.302,8.372 431.782,7.004 C430.072,5.484 427.792,4.724 424.904,4.724 Z M424.904,8.03 C426.576,8.03 427.906,8.448 428.894,9.36 C429.73,10.12 430.186,11.108 430.186,12.248 C430.186,13.54 429.806,14.566 429.122,15.326 C428.21,16.238 426.804,16.694 424.904,16.694 C422.966,16.694 421.56,16.238 420.686,15.326 C419.964,14.566 419.622,13.54 419.622,12.248 C419.622,11.108 420.04,10.12 420.914,9.36 C421.902,8.448 423.232,8.03 424.904,8.03 Z M424.904,19.772 C426.88,19.772 428.362,20.266 429.426,21.254 C430.414,22.128 430.908,23.306 430.908,24.826 C430.908,26.232 430.414,27.372 429.426,28.246 C428.324,29.12 426.804,29.576 424.904,29.576 C422.966,29.576 421.484,29.12 420.458,28.246 C419.394,27.372 418.9,26.232 418.9,24.826 C418.9,23.306 419.394,22.128 420.42,21.216 C421.408,20.228 422.928,19.772 424.904,19.772 Z M470.542,17.226 L460.776,17.226 L460.776,14.11 L457.28,14.11 L457.28,17.226 L447.248,17.226 L447.248,36.15 L450.706,36.15 L450.706,34.63 L467.122,34.63 L467.122,36.226 L470.542,36.226 L470.542,17.226 Z M450.706,31.4 L450.706,27.448 L457.28,27.448 L457.28,31.4 L450.706,31.4 Z M460.776,31.4 L460.776,27.448 L467.122,27.448 L467.122,31.4 L460.776,31.4 Z M450.706,24.332 L450.706,20.57 L457.28,20.57 L457.28,24.332 L450.706,24.332 Z M460.776,20.57 L467.122,20.57 L467.122,24.332 L460.776,24.332 L460.776,20.57 Z M466.4,5.94 L466.4,9.816 L445.272,9.816 L445.272,5.94 L466.4,5.94 Z M445.272,13.122 L470.086,13.122 L470.086,2.52 L441.624,2.52 L441.624,15.402 C441.586,22.812 440.332,28.854 437.9,33.566 L440.788,36.15 C443.752,30.374 445.234,23.458 445.272,15.402 L445.272,13.122 Z M491.442,1.076 L491.442,7.65 L477.952,7.65 L477.952,26.004 L481.562,26.004 L481.562,23.838 L491.442,23.838 L491.442,36.568 L495.166,36.568 L495.166,23.838 L505.084,23.838 L505.084,26.004 L508.694,26.004 L508.694,7.65 L495.166,7.65 L495.166,1.076 L491.442,1.076 Z M481.562,20.304 L481.562,11.184 L491.442,11.184 L491.442,20.304 L481.562,20.304 Z M495.166,20.304 L495.166,11.184 L505.084,11.184 L505.084,20.304 L495.166,20.304 Z M521.88,8.714 L521.88,11.982 L529.48,11.982 L529.48,16.656 L523.096,16.656 L523.096,19.848 L529.48,19.848 L529.48,25.13 L520.854,25.13 L520.854,28.398 L541.792,28.398 L541.792,25.13 L537.916,25.13 L539.968,24.218 C539.322,22.774 538.562,21.482 537.688,20.266 L534.838,21.178 C535.598,22.318 536.32,23.61 537.004,25.13 L533.128,25.13 L533.128,19.848 L539.512,19.848 L539.512,16.656 L533.128,16.656 L533.128,11.982 L540.69,11.982 L540.69,8.714 L521.88,8.714 Z M547.264,2.672 L515.344,2.672 L515.344,36.226 L518.992,36.226 L518.992,34.782 L543.616,34.782 L543.616,36.226 L547.264,36.226 L547.264,2.672 Z M518.992,31.4 L518.992,6.092 L543.616,6.092 L543.616,31.4 L518.992,31.4 Z M565.618,5.256 L565.618,32.388 L569.76,32.388 L569.76,21.178 L577.094,21.178 C578.652,21.178 579.83,21.482 580.666,22.166 C581.464,22.85 581.958,23.914 582.11,25.434 L582.452,28.816 C582.604,30.336 582.984,31.552 583.63,32.388 L588.114,32.388 C587.202,31.4 586.67,30.07 586.518,28.398 L586.062,24.066 C585.758,21.406 584.428,19.81 581.996,19.278 L581.996,19.202 C583.478,18.822 584.656,18.024 585.53,16.808 C586.29,15.706 586.67,14.452 586.67,13.008 C586.67,10.424 585.834,8.486 584.162,7.118 C582.566,5.864 580.362,5.256 577.626,5.256 L565.618,5.256 Z M569.76,8.79 L577.056,8.79 C578.956,8.79 580.324,9.132 581.236,9.854 C582.072,10.538 582.528,11.64 582.528,13.16 C582.528,14.604 582.072,15.706 581.198,16.466 C580.286,17.226 578.918,17.644 577.094,17.644 L569.76,17.644 L569.76,8.79 Z M619.578,1.152 C615.17,6.13 609.622,10.272 602.972,13.616 L604.91,17.112 C607.266,15.82 609.47,14.452 611.522,13.008 L611.522,16.01 L630.408,16.01 L630.408,13.16 C632.384,14.604 634.474,15.896 636.754,17.074 L638.73,13.578 C632.498,10.538 627.026,6.396 622.238,1.152 L619.578,1.152 Z M612.092,12.59 C615.512,10.12 618.438,7.384 620.908,4.382 C623.454,7.422 626.38,10.158 629.648,12.59 L612.092,12.59 Z M605.556,20.228 L605.556,23.724 L614.448,23.724 C613.004,26.384 611.256,28.892 609.204,31.286 C608.824,31.704 608.216,32.046 607.342,32.274 L608.33,35.39 C617.222,34.858 624.632,34.136 630.522,33.224 C631.244,34.25 631.928,35.276 632.574,36.264 L635.576,34.136 C633.676,31.362 631.016,28.094 627.558,24.332 L624.746,26.118 C626.114,27.638 627.368,29.12 628.508,30.602 C623.416,31.21 618.172,31.666 612.7,31.97 C614.942,29.614 616.918,26.878 618.628,23.724 L636.336,23.724 L636.336,20.228 L605.556,20.228 Z M662.024,1 L659.326,2.976 C661.492,5.94 663.24,8.638 664.57,11.146 L667.42,9.17 C666.166,6.814 664.38,4.116 662.024,1 Z M671.106,3.052 C670.042,10.804 667.914,17.226 664.646,22.356 C661.378,17.72 658.87,12.02 657.122,5.256 L654.006,7.004 C656.096,14.224 658.908,20.342 662.48,25.32 C659.668,28.778 656.172,31.438 652.03,33.338 L654.006,36.416 C658.224,34.516 661.834,31.78 664.836,28.284 C667.724,31.628 671.03,34.364 674.83,36.416 L676.958,33.3 C673.196,31.324 669.89,28.702 667.002,25.396 C670.802,19.848 673.31,12.628 674.526,3.774 L671.106,3.052 Z M646.634,1.532 L644.126,3.926 C646.748,5.94 648.8,7.84 650.282,9.664 L652.752,7.156 C651.08,5.294 649.028,3.432 646.634,1.532 Z M641.466,12.552 L641.466,16.01 L646.786,16.01 L646.786,29.652 C646.786,30.412 646.444,31.058 645.798,31.552 L647.166,34.858 C649.75,33.072 652.182,31.096 654.462,28.892 L653.474,25.054 C652.334,26.194 651.27,27.22 650.244,28.132 L650.244,12.552 L641.466,12.552 Z M362.34,56.108 L362.34,57.528 L367.363986,57.528 L367.363986,70.388 L368.978838,70.388 L368.978838,57.528 L374.002824,57.528 L374.002824,56.108 L362.34,56.108 Z M376.975663,55.828 L376.975663,70.388 L378.57058,70.388 L378.57058,64.488 C378.57058,63.528 378.829753,62.708 379.368038,62.068 C379.886385,61.428 380.544288,61.108 381.341746,61.108 C382.199014,61.108 382.856917,61.368 383.335392,61.888 C383.773993,62.408 384.013231,63.148 384.013231,64.108 L384.013231,70.388 L385.608147,70.388 L385.608147,63.868 C385.608147,62.548 385.289164,61.528 384.651197,60.828 C384.013231,60.108 383.076218,59.768 381.880031,59.768 C381.182255,59.768 380.564225,59.928 380.006004,60.248 C379.407911,60.588 378.929436,61.088 378.57058,61.748 L378.57058,55.828 L376.975663,55.828 Z M393.704654,59.768 C392.209421,59.768 391.03317,60.308 390.155966,61.388 C389.278762,62.408 388.860097,63.688 388.860097,65.208 C388.860097,66.888 389.298699,68.208 390.215775,69.208 C391.092979,70.168 392.289166,70.668 393.764464,70.668 C395.100206,70.668 396.196711,70.268 397.053978,69.508 C397.751754,68.868 398.210292,68.068 398.44953,67.068 L396.854614,67.068 C396.59544,67.788 396.25652,68.328 395.817918,68.688 C395.299571,69.108 394.601795,69.328 393.764464,69.328 C392.787578,69.328 392.010056,69.008 391.451835,68.368 C390.893615,67.728 390.594568,66.828 390.514822,65.668 L398.648894,65.668 C398.609021,63.868 398.210292,62.448 397.452707,61.448 C396.615376,60.328 395.35938,59.768 393.704654,59.768 Z M393.744527,61.108 C395.6983,61.108 396.794804,62.208 396.994169,64.428 L390.554695,64.428 C390.654377,63.408 390.973361,62.608 391.531581,62.008 C392.089802,61.408 392.827451,61.108 393.744527,61.108 Z M413.306802,56.108 C412.828328,56.648 412.270107,57.128 411.592268,57.568 C410.914428,57.968 410.236589,58.248 409.598622,58.428 L409.598622,60.068 C410.934365,59.668 412.050806,59.028 412.947946,58.108 L412.947946,70.388 L414.582735,70.388 L414.582735,56.108 L413.306802,56.108 Z M424.094731,55.828 C422.599497,55.828 421.443183,56.208 420.605852,56.988 C419.82833,57.688 419.449538,58.568 419.449538,59.608 C419.449538,60.368 419.628966,61.008 419.987822,61.528 C420.366614,62.088 420.924835,62.508 421.68242,62.768 L421.68242,62.808 C420.924835,62.988 420.306805,63.408 419.788457,64.048 C419.230237,64.728 418.951126,65.528 418.951126,66.448 C418.951126,67.708 419.389728,68.728 420.266932,69.488 C421.164072,70.268 422.440005,70.668 424.094731,70.668 C425.72952,70.668 427.005453,70.268 427.922529,69.488 C428.799733,68.728 429.238335,67.708 429.238335,66.448 C429.238335,65.528 428.959225,64.728 428.401004,64.048 C427.882657,63.408 427.24469,62.988 426.507041,62.808 L426.507041,62.768 C427.24469,62.508 427.802911,62.088 428.20164,61.528 C428.560496,61.008 428.739924,60.368 428.739924,59.608 C428.739924,58.568 428.341195,57.688 427.58361,56.988 C426.746279,56.208 425.570028,55.828 424.094731,55.828 Z M424.094731,57.168 C425.091553,57.168 425.889011,57.428 426.467169,57.948 C426.945643,58.388 427.204817,58.968 427.204817,59.668 C427.204817,60.388 426.985516,60.988 426.546914,61.428 C426.00863,61.948 425.191236,62.228 424.094731,62.228 C422.97829,62.228 422.160895,61.948 421.642547,61.428 C421.203945,60.988 420.984644,60.388 420.984644,59.668 C420.984644,58.968 421.223882,58.388 421.722293,57.948 C422.280514,57.428 423.077972,57.168 424.094731,57.168 Z M424.094731,63.508 C425.231109,63.508 426.128249,63.788 426.766215,64.368 C427.324436,64.888 427.623483,65.588 427.623483,66.448 C427.623483,67.288 427.324436,67.968 426.766215,68.488 C426.128249,69.048 425.251045,69.328 424.094731,69.328 C422.938417,69.328 422.041276,69.048 421.443183,68.508 C420.845089,67.988 420.565979,67.288 420.565979,66.448 C420.565979,65.588 420.845089,64.888 421.443183,64.368 C422.061213,63.788 422.938417,63.508 424.094731,63.508 Z M435.460816,56.708 L433.885837,57.368 L433.885837,60.048 L431.812446,60.048 L431.812446,61.388 L433.885837,61.388 L433.885837,67.968 C433.885837,68.748 434.045328,69.328 434.384248,69.728 C434.743104,70.168 435.361134,70.388 436.198465,70.388 L437.753508,70.388 L437.753508,69.048 L436.437702,69.048 C436.078846,69.048 435.819672,68.948 435.680117,68.788 C435.520626,68.628 435.460816,68.348 435.460816,67.968 L435.460816,61.388 L438.012682,61.388 L438.012682,60.048 L435.460816,60.048 L435.460816,56.708 Z M441.184886,55.828 L441.184886,70.388 L442.779802,70.388 L442.779802,64.488 C442.779802,63.528 443.038976,62.708 443.57726,62.068 C444.095608,61.428 444.753511,61.108 445.550969,61.108 C446.408236,61.108 447.066139,61.368 447.544614,61.888 C447.983216,62.408 448.222453,63.148 448.222453,64.108 L448.222453,70.388 L449.817369,70.388 L449.817369,63.868 C449.817369,62.548 449.498386,61.528 448.86042,60.828 C448.222453,60.108 447.28544,59.768 446.089253,59.768 C445.391477,59.768 444.773447,59.928 444.215227,60.248 C443.617133,60.588 443.138658,61.088 442.779802,61.748 L442.779802,55.828 L441.184886,55.828 Z M468.043902,55.828 C465.850893,55.828 464.136358,56.568 462.940171,58.088 C461.843666,59.448 461.305382,61.188 461.305382,63.308 C461.305382,65.428 461.823729,67.148 462.900298,68.468 C464.076548,69.928 465.771147,70.668 467.984093,70.668 C469.499263,70.668 470.815069,70.228 471.911574,69.368 C473.087825,68.448 473.825473,67.148 474.144456,65.488 L472.569477,65.488 C472.290366,66.728 471.712209,67.668 470.874878,68.308 C470.07742,68.908 469.120471,69.208 467.984093,69.208 C466.309431,69.208 465.053435,68.648 464.176231,67.548 C463.3389,66.508 462.940171,65.088 462.940171,63.308 C462.940171,61.528 463.358836,60.108 464.196167,59.028 C465.093307,57.868 466.36924,57.288 468.023966,57.288 C469.140407,57.288 470.07742,57.548 470.854942,58.088 C471.6524,58.648 472.170748,59.448 472.370112,60.488 L473.945092,60.488 C473.745727,59.068 473.107761,57.928 472.031193,57.088 C470.954624,56.248 469.618882,55.828 468.043902,55.828 Z M477.615707,55.828 L477.615707,70.388 L479.210623,70.388 L479.210623,64.488 C479.210623,63.528 479.469797,62.708 480.008081,62.068 C480.526429,61.428 481.184332,61.108 481.98179,61.108 C482.839057,61.108 483.49696,61.368 483.975435,61.888 C484.414037,62.408 484.653274,63.148 484.653274,64.108 L484.653274,70.388 L486.248191,70.388 L486.248191,63.868 C486.248191,62.548 485.929207,61.528 485.291241,60.828 C484.653274,60.108 483.716261,59.768 482.520074,59.768 C481.822298,59.768 481.204268,59.928 480.646048,60.248 C480.047954,60.588 479.569479,61.088 479.210623,61.748 L479.210623,55.828 L477.615707,55.828 Z M491.41404,56.148 C491.07512,56.148 490.79601,56.248 490.556772,56.488 C490.317535,56.688 490.217853,56.968 490.217853,57.328 C490.217853,57.668 490.317535,57.948 490.556772,58.188 C490.79601,58.408 491.07512,58.528 491.41404,58.528 C491.752959,58.528 492.03207,58.408 492.271307,58.188 C492.510544,57.948 492.630163,57.668 492.630163,57.328 C492.630163,56.968 492.510544,56.688 492.271307,56.488 C492.03207,56.248 491.752959,56.148 491.41404,56.148 Z M490.616582,60.048 L490.616582,70.388 L492.211498,70.388 L492.211498,60.048 L490.616582,60.048 Z M501.424446,59.768 C500.746607,59.768 500.128577,59.928 499.570356,60.248 C499.012136,60.548 498.553597,60.988 498.194741,61.568 L498.194741,60.048 L496.599825,60.048 L496.599825,70.388 L498.194741,70.388 L498.194741,64.148 C498.254551,63.208 498.553597,62.468 499.111818,61.908 C499.630166,61.388 500.248196,61.128 500.965908,61.128 C502.760189,61.128 503.677265,62.128 503.677265,64.148 L503.677265,70.388 L505.272182,70.388 L505.272182,64.028 C505.272182,61.188 503.976312,59.768 501.424446,59.768 Z M513.627863,59.768 C512.391803,59.768 511.414917,60.008 510.657332,60.488 C509.820001,61.008 509.281716,61.828 509.062415,62.908 L510.637395,63.028 C510.796887,62.368 511.135806,61.868 511.674091,61.548 C512.152565,61.228 512.770595,61.088 513.528181,61.088 C515.322461,61.088 516.219602,61.948 516.219602,63.688 L516.219602,64.228 L513.747482,64.268 C512.192438,64.288 510.996251,64.588 510.15892,65.148 C509.201971,65.748 508.743432,66.628 508.743432,67.808 C508.743432,68.648 509.062415,69.348 509.700382,69.888 C510.318412,70.408 511.135806,70.668 512.172502,70.668 C513.129452,70.668 513.986719,70.448 514.744304,70.028 C515.382271,69.668 515.920555,69.208 516.319284,68.648 L516.319284,70.388 L517.814518,70.388 L517.814518,63.748 C517.814518,62.548 517.495534,61.608 516.897441,60.928 C516.179729,60.148 515.10316,59.768 513.627863,59.768 Z M516.219602,65.428 L516.219602,66.308 C516.219602,67.108 515.840809,67.828 515.10316,68.448 C514.345575,69.088 513.488308,69.408 512.511422,69.408 C511.873455,69.408 511.355107,69.248 510.956378,68.948 C510.557649,68.628 510.378221,68.248 510.378221,67.768 C510.378221,66.268 511.534535,65.508 513.847164,65.468 L516.219602,65.428 Z M521.44526,64.528 L521.44526,65.888 L531.513168,65.888 L531.513168,64.528 L521.44526,64.528 Z M535.343275,56.108 L535.343275,70.388 L536.978064,70.388 L536.978064,64.248 L541.284337,64.248 C542.181478,64.248 542.859317,64.408 543.337792,64.768 C543.856139,65.128 544.155186,65.748 544.234932,66.588 L544.41436,68.488 C544.474169,69.288 544.673534,69.908 544.992517,70.388 L546.766861,70.388 C546.348196,69.868 546.089022,69.168 546.009276,68.288 L545.789975,66.088 C545.630484,64.648 544.872899,63.788 543.51722,63.488 L543.51722,63.448 C544.334614,63.248 544.972581,62.848 545.451056,62.208 C545.889658,61.588 546.108958,60.888 546.108958,60.088 C546.108958,58.768 545.670357,57.768 544.833026,57.088 C544.015631,56.428 542.89919,56.108 541.483702,56.108 L535.343275,56.108 Z M536.978064,57.528 L541.284337,57.528 C542.380842,57.528 543.198237,57.748 543.716584,58.188 C544.195059,58.608 544.454233,59.268 544.454233,60.148 C544.454233,60.988 544.195059,61.628 543.696648,62.088 C543.138427,62.568 542.321033,62.828 541.284337,62.828 L536.978064,62.828 L536.978064,57.528 Z M564.395301,55.828 C562.202291,55.828 560.487756,56.568 559.291569,58.088 C558.195064,59.448 557.65678,61.188 557.65678,63.308 C557.65678,65.428 558.175128,67.148 559.251696,68.468 C560.427947,69.928 562.122545,70.668 564.335491,70.668 C565.850662,70.668 567.166467,70.228 568.262972,69.368 C569.439223,68.448 570.176872,67.148 570.495855,65.488 L568.920875,65.488 C568.641765,66.728 568.063608,67.668 567.226277,68.308 C566.428819,68.908 565.471869,69.208 564.335491,69.208 C562.660829,69.208 561.404833,68.648 560.527629,67.548 C559.690298,66.508 559.291569,65.088 559.291569,63.308 C559.291569,61.528 559.710235,60.108 560.547566,59.028 C561.444706,57.868 562.720639,57.288 564.375364,57.288 C565.491806,57.288 566.428819,57.548 567.20634,58.088 C568.003798,58.648 568.522146,59.448 568.721511,60.488 L570.29649,60.488 C570.097126,59.068 569.459159,57.928 568.382591,57.088 C567.306023,56.248 565.97028,55.828 564.395301,55.828 Z M578.572426,59.768 C577.017383,59.768 575.801259,60.288 574.884182,61.368 C574.006978,62.388 573.568377,63.668 573.568377,65.228 C573.568377,66.768 574.006978,68.048 574.884182,69.048 C575.801259,70.128 577.017383,70.668 578.572426,70.668 C580.107533,70.668 581.343593,70.128 582.280606,69.048 C583.137873,68.048 583.576475,66.768 583.576475,65.228 C583.576475,63.668 583.137873,62.388 582.260669,61.368 C581.343593,60.288 580.107533,59.768 578.572426,59.768 Z M578.572426,61.108 C579.648994,61.108 580.506262,61.528 581.144228,62.368 C581.682512,63.128 581.961623,64.068 581.961623,65.228 C581.961623,66.348 581.682512,67.308 581.144228,68.068 C580.506262,68.908 579.648994,69.328 578.572426,69.328 C577.475921,69.328 576.618654,68.908 576.02056,68.068 C575.462339,67.308 575.203166,66.368 575.203166,65.228 C575.203166,64.068 575.462339,63.128 576.02056,62.368 C576.618654,61.528 577.475921,61.108 578.572426,61.108 Z M591.872347,59.768 C591.194508,59.768 590.576478,59.928 590.018257,60.248 C589.460036,60.548 589.001498,60.988 588.642642,61.568 L588.642642,60.048 L587.047726,60.048 L587.047726,70.388 L588.642642,70.388 L588.642642,64.148 C588.702451,63.208 589.001498,62.468 589.559719,61.908 C590.078066,61.388 590.696096,61.128 591.413809,61.128 C593.208089,61.128 594.125166,62.128 594.125166,64.148 L594.125166,70.388 L595.720082,70.388 L595.720082,64.028 C595.720082,61.188 594.424213,59.768 591.872347,59.768 Z M603.716907,56.108 C602.839704,56.108 602.161864,56.348 601.703326,56.848 C601.264724,57.328 601.045423,57.988 601.045423,58.868 L601.045423,60.048 L598.453684,60.048 L598.453684,61.388 L601.045423,61.388 L601.045423,70.388 L602.640339,70.388 L602.640339,61.388 L605.551061,61.388 L605.551061,60.048 L602.640339,60.048 L602.640339,58.908 C602.640339,58.408 602.740021,58.048 602.939386,57.828 C603.13875,57.588 603.47767,57.488 603.916272,57.488 L605.690616,57.488 L605.690616,56.108 L603.716907,56.108 Z M612.670682,59.768 C611.175448,59.768 609.999198,60.308 609.121994,61.388 C608.24479,62.408 607.826124,63.688 607.826124,65.208 C607.826124,66.888 608.264726,68.208 609.181803,69.208 C610.059007,70.168 611.255194,70.668 612.730492,70.668 C614.066234,70.668 615.162739,70.268 616.020006,69.508 C616.717782,68.868 617.17632,68.068 617.415558,67.068 L615.820642,67.068 C615.561468,67.788 615.222548,68.328 614.783946,68.688 C614.265598,69.108 613.567823,69.328 612.730492,69.328 C611.753605,69.328 610.976084,69.008 610.417863,68.368 C609.859643,67.728 609.560596,66.828 609.48085,65.668 L617.614922,65.668 C617.575049,63.868 617.17632,62.448 616.418735,61.448 C615.581404,60.328 614.325408,59.768 612.670682,59.768 Z M612.710555,61.108 C614.664327,61.108 615.760832,62.208 615.960197,64.428 L609.520723,64.428 C609.620405,63.408 609.939388,62.608 610.497609,62.008 C611.05583,61.408 611.793478,61.108 612.710555,61.108 Z M625.412383,59.768 C624.694671,59.768 624.076641,59.988 623.538356,60.428 C623.099754,60.768 622.740898,61.248 622.461788,61.848 L622.461788,60.048 L620.886808,60.048 L620.886808,70.388 L622.461788,70.388 L622.461788,64.908 C622.461788,63.948 622.720962,63.128 623.279182,62.448 C623.817467,61.728 624.495306,61.388 625.292764,61.388 C625.791175,61.388 626.309523,61.448 626.827871,61.608 L626.827871,60.008 C626.449078,59.848 625.970603,59.768 625.412383,59.768 Z M633.807937,59.768 C632.312703,59.768 631.136452,60.308 630.259249,61.388 C629.382045,62.408 628.963379,63.688 628.963379,65.208 C628.963379,66.888 629.401981,68.208 630.319058,69.208 C631.196262,70.168 632.392449,70.668 633.867746,70.668 C635.203489,70.668 636.299993,70.268 637.157261,69.508 C637.855037,68.868 638.313575,68.068 638.552812,67.068 L636.957896,67.068 C636.698722,67.788 636.359803,68.328 635.921201,68.688 C635.402853,69.108 634.705077,69.328 633.867746,69.328 C632.89086,69.328 632.113339,69.008 631.555118,68.368 C630.996897,67.728 630.697851,66.828 630.618105,65.668 L638.752177,65.668 C638.712304,63.868 638.313575,62.448 637.55599,61.448 C636.718659,60.328 635.462662,59.768 633.807937,59.768 Z M633.84781,61.108 C635.801582,61.108 636.898087,62.208 637.097451,64.428 L630.657978,64.428 C630.75766,63.408 631.076643,62.608 631.634864,62.008 C632.193084,61.408 632.930733,61.108 633.84781,61.108 Z M646.848684,59.768 C646.170845,59.768 645.552815,59.928 644.994594,60.248 C644.436374,60.548 643.977835,60.988 643.618979,61.568 L643.618979,60.048 L642.024063,60.048 L642.024063,70.388 L643.618979,70.388 L643.618979,64.148 C643.678789,63.208 643.977835,62.468 644.536056,61.908 C645.054404,61.388 645.672434,61.128 646.390146,61.128 C648.184427,61.128 649.101503,62.128 649.101503,64.148 L649.101503,70.388 L650.696419,70.388 L650.696419,64.028 C650.696419,61.188 649.40055,59.768 646.848684,59.768 Z M659.012228,59.768 C657.477121,59.768 656.260998,60.308 655.383794,61.408 C654.566399,62.408 654.16767,63.688 654.16767,65.268 C654.16767,66.848 654.566399,68.128 655.383794,69.108 C656.241061,70.148 657.437248,70.668 658.992291,70.668 C660.268224,70.668 661.284983,70.328 662.062505,69.668 C662.859963,68.988 663.358374,67.968 663.597612,66.648 L662.002696,66.648 C661.763458,68.428 660.746699,69.328 658.992291,69.328 C657.955596,69.328 657.158138,68.948 656.619854,68.228 C656.061633,67.508 655.802459,66.508 655.802459,65.248 C655.802459,63.988 656.081569,62.988 656.63979,62.248 C657.217947,61.488 658.015405,61.108 659.012228,61.108 C659.829622,61.108 660.487525,61.288 661.005873,61.688 C661.504284,62.088 661.823268,62.688 661.962823,63.488 L663.537802,63.488 C663.358374,62.228 662.879899,61.288 662.082441,60.668 C661.30492,60.068 660.288161,59.768 659.012228,59.768 Z M671.115962,59.768 C669.620728,59.768 668.444478,60.308 667.567274,61.388 C666.69007,62.408 666.271404,63.688 666.271404,65.208 C666.271404,66.888 666.710006,68.208 667.627083,69.208 C668.504287,70.168 669.700474,70.668 671.175771,70.668 C672.511514,70.668 673.608018,70.268 674.465286,69.508 C675.163062,68.868 675.6216,68.068 675.860837,67.068 L674.265921,67.068 C674.006747,67.788 673.667828,68.328 673.229226,68.688 C672.710878,69.108 672.013102,69.328 671.175771,69.328 C670.198885,69.328 669.421364,69.008 668.863143,68.368 C668.304922,67.728 668.005876,66.828 667.92613,65.668 L676.060202,65.668 C676.020329,63.868 675.6216,62.448 674.864015,61.448 C674.026684,60.328 672.770688,59.768 671.115962,59.768 Z M671.155835,61.108 C673.109607,61.108 674.206112,62.208 674.405477,64.428 L667.966003,64.428 C668.065685,63.408 668.384668,62.608 668.942889,62.008 C669.501109,61.408 670.238758,61.108 671.155835,61.108 Z M343,4.388 L344,4.388 L344,70.388 L343,70.388 L343,4.388 Z" fill-rule="nonzero"></path>
            </g>
        </g>
    </g>
</svg>