<?xml version="1.0" encoding="UTF-8"?>
<svg width="248px" height="48px" viewBox="0 0 248 48" version="1.1" xmlns="http://www.w3.org/2000/svg" xmlns:xlink="http://www.w3.org/1999/xlink">
    <title>logo</title>
    <g id="页面-1" stroke="none" stroke-width="1" fill="none" fill-rule="evenodd">
        <g id="MacBook-Pro-13&quot;备份" transform="translate(-120, -171)" fill="#FFFFFF">
            <g id="logo" transform="translate(120, 171)">
                <path d="M127.569063,0 C138.008668,0 146.835728,6.89360128 149.745904,16.3754005 L138.629526,16.3754005 C136.330186,12.7227145 132.237372,10.2895237 127.569063,10.2895237 C120.375647,10.2895237 114.542634,16.06275 114.542634,23.1835897 C114.542634,30.3044294 120.375647,36.0766012 127.569063,36.0766012 C133.024918,36.0766012 137.693227,32.7555462 139.633345,28.0457534 L126.085226,28.0457534 C126.085226,23.8885033 129.458013,20.5163064 133.61782,20.5163064 L150.606245,20.5163064 C150.706468,21.3925715 150.763438,22.2804357 150.763438,23.1835897 C150.763438,24.8512349 150.583563,26.4772285 150.248605,28.0457534 C148.013091,38.5150644 138.709705,46.3666522 127.569063,46.3666522 C114.758906,46.3666522 104.374688,35.9874985 104.374688,23.1835897 C104.374688,10.3791537 114.758906,0 127.569063,0 Z M87.6131291,1.28796256 L87.7554934,1.29470216 C88.3196812,1.34829496 88.8149394,1.71761234 89.0361434,2.26268106 L106.95184,46.3666522 L96.4966529,46.3666522 L96.3510833,46.3596198 C95.7744624,46.3037113 95.2717293,45.918666 95.0588265,45.3560144 L91.3658664,35.5729102 L77.1917978,35.5729102 L77.1956601,35.32259 C77.3240803,31.1668307 80.6386892,27.8399257 84.7078524,27.8399257 L88.4457776,27.8399257 L83.1467687,13.8025644 L71.2331239,45.3560144 L71.1739942,45.4928895 C70.9143582,46.0248877 70.3833032,46.3666522 69.7963556,46.3666522 L59.2745139,46.3666522 L77.1917978,2.26268106 L77.2526804,2.13015637 C77.5180634,1.61535158 78.0399908,1.28796256 78.6137541,1.28796256 L87.6131291,1.28796256 Z M12.1116366,1.28796256 L12.2634728,1.29526615 C12.7151648,1.33885908 13.1284982,1.57553445 13.3952436,1.94974798 L22.549545,14.7745617 L29.0114686,23.8273074 L45.1001736,46.3666522 L32.9879952,46.3666522 L32.8363199,46.3593633 C32.3851009,46.3158536 31.9721089,46.0795701 31.7043882,45.7048667 L22.549545,32.880053 L13.3952436,45.7048667 L13.3010185,45.8245666 C13.0028684,46.167839 12.5695413,46.3666522 12.1116366,46.3666522 L0,46.3666522 L16.0887051,23.8273074 L0,1.28796256 L12.1116366,1.28796256 Z M59.2745139,20.607401 L59.2745139,22.7925738 C59.2745139,25.8533179 57.0991663,28.3351763 54.4159555,28.3351763 L42.5230208,28.3351763 L42.5230208,26.149467 C42.5230208,23.0887229 44.6978982,20.607401 47.3815793,20.607401 L59.2745139,20.607401 Z M45.1001736,1.28796256 L29.822423,23.1833261 L23.194375,13.6830734 L31.3577021,1.98254573 L31.4546209,1.85705237 C31.7610325,1.4970915 32.2042735,1.28796256 32.6745292,1.28796256 L45.1001736,1.28796256 Z M155.453283,1.28796256 C154.998032,1.28796256 154.629167,1.66620341 154.629167,2.13369821 L154.629167,2.13369821 L154.629167,45.5214608 C154.629167,45.9884113 154.998032,46.3666522 155.453283,46.3666522 L155.453283,46.3666522 L164.114721,46.3666522 C164.568913,46.3666522 164.937778,45.9884113 164.937778,45.5214608 L164.937778,45.5214608 L164.937778,2.13369821 C164.937778,1.66620341 164.568913,1.28796256 164.114721,1.28796256 L164.114721,1.28796256 L155.453283,1.28796256 Z M205.631085,0 C204.643985,0 203.799561,0.696300438 203.627033,1.65104215 L203.627033,1.65104215 L199.641698,23.7696394 C199.624496,23.8655608 199.749971,23.9167521 199.807648,23.8382257 L199.807648,23.8382257 C203.995362,18.1699127 209.097826,13.6412264 216.040414,11.4032243 L216.040414,11.4032243 L214.453768,6.86907092 L232.21955,11.2252974 L220.647557,25.2293356 L219.378139,20.3830646 C206.173459,23.1270152 196.469924,35.3204734 195.227853,47.8986115 L195.227853,47.8986115 C195.222767,47.9527848 195.266279,48 195.321933,48 L195.321933,48 L211.464134,48 C211.509163,48 211.548121,47.9681918 211.556216,47.9244556 L211.556216,47.9244556 L213.990322,34.4035039 C214.21142,33.1783928 215.295156,32.2847824 216.562044,32.2847824 L216.562044,32.2847824 L218.71282,32.2847824 C219.676141,32.2847824 220.579254,32.7450067 221.133771,33.5178455 L221.133771,33.5178455 L231.167688,47.9612338 C231.184891,47.9850899 231.213729,48 231.244086,48 L231.244086,48 L248,48 L235.992894,30.8688224 C235.965067,30.8280682 235.97468,30.7729009 236.015661,30.7440748 L236.015661,30.7440748 C245.55021,23.9450812 245.329112,13.2108222 240.432568,6.50625912 L240.432568,6.50625912 C237.409542,2.36771969 232.467463,0 227.28253,0 L227.28253,0 L205.631085,0 Z" id="形状结合备份-3" fill-rule="nonzero"></path>
            </g>
        </g>
    </g>
</svg>