<?xml version="1.0" encoding="UTF-8"?>
<svg width="550px" height="180px" viewBox="0 0 550 180" version="1.1" xmlns="http://www.w3.org/2000/svg" xmlns:xlink="http://www.w3.org/1999/xlink">
    <title>主图</title>
    <g id="页面-2" stroke="none" stroke-width="1" fill="none" fill-rule="evenodd">
        <g id="切片" transform="translate(-70, -199)" fill="#FFFFFF">
            <g id="主图" transform="translate(70, 184)">
                <g id="编组" transform="translate(17.1974, 31.1184)" fill-rule="nonzero">
                    <path d="M236.674299,110.146579 L236.674299,116.446579 L249.239299,116.446579 L249.239299,132.896579 L246.719299,132.896579 L246.719299,130.691579 L236.674299,130.691579 L236.674299,142.626579 L234.084299,142.626579 L234.084299,130.691579 L224.074299,130.691579 L224.074299,132.896579 L221.554299,132.896579 L221.554299,116.446579 L234.084299,116.446579 L234.084299,110.146579 L236.674299,110.146579 Z M514.562634,111.896579 L516.942634,112.386579 C515.787634,120.646579 513.407634,127.366579 509.837634,132.546579 C512.532634,135.801579 515.717634,138.356579 519.357634,140.246579 L517.887634,142.451579 C514.247634,140.456579 511.062634,137.831579 508.332634,134.541579 C505.532634,137.971579 502.102634,140.596579 498.042634,142.451579 L496.677634,140.316579 C500.667634,138.496579 504.027634,135.871579 506.722634,132.476579 C503.292634,127.786579 500.632634,122.046579 498.672634,115.256579 L500.842634,114.066579 C502.592634,120.576579 505.042634,126.036579 508.192634,130.446579 C511.412634,125.546579 513.512634,119.386579 514.562634,111.896579 Z M29.1826316,119.526579 L29.1826316,127.506579 L17.7726316,127.506579 L17.7726316,130.936579 L30.4076316,130.936579 C30.4076316,135.066579 30.1276316,137.691579 29.6026316,138.741579 C29.0426316,139.931579 27.8176316,140.526579 25.9276316,140.561579 C24.4576316,140.561579 23.0226316,140.526579 21.6226316,140.491579 L20.9926316,138.111579 C22.6026316,138.181579 24.1426316,138.216579 25.5426316,138.216579 C26.5926316,138.216579 27.2576316,137.796579 27.5376316,137.026579 C27.7476316,136.326579 27.8526316,135.031579 27.8526316,133.141579 L17.7726316,133.141579 L17.7726316,142.416579 L15.3226316,142.416579 L15.3226316,133.141579 L15.2176316,133.141579 C12.9076316,136.501579 8.63763158,139.371579 2.33763158,141.751579 L0.902631579,139.441579 C6.50263158,137.586579 10.3526316,135.486579 12.4526316,133.141579 L2.86263158,133.141579 L4.47263158,125.196579 L15.3226316,125.196579 L15.3226316,121.836579 L3.66763158,121.836579 L3.66763158,119.526579 L29.1826316,119.526579 Z M447.2693,128.066579 L447.2693,130.516579 L430.7843,130.516579 C429.1043,133.806579 427.0743,136.676579 424.6943,139.161579 C430.3993,138.811579 435.8243,138.321579 441.0043,137.621579 C439.8143,136.081579 438.5193,134.471579 437.0843,132.861579 L439.0443,131.601579 C442.2293,135.171579 444.6793,138.251579 446.3943,140.876579 L444.2943,142.346579 C443.6993,141.401579 443.0693,140.456579 442.3693,139.476579 C436.9093,140.351579 430.0143,141.051579 421.6493,141.541579 L420.9493,139.336579 C421.5793,139.161579 421.9993,138.951579 422.2793,138.671579 C424.5193,136.081579 426.4093,133.386579 427.9143,130.516579 L419.1293,130.516579 L419.1293,128.066579 L447.2693,128.066579 Z M319.472633,111.896579 L319.472633,142.311579 L316.917633,142.311579 L316.917633,140.806579 L293.257633,140.806579 L293.257633,142.311579 L290.702633,142.311579 L290.702633,111.896579 L319.472633,111.896579 Z M170.290966,121.906579 L170.290966,125.301579 L179.390966,125.301579 L179.390966,142.311579 L176.975966,142.311579 L176.975966,140.701579 L161.015966,140.701579 L161.015966,142.241579 L158.565966,142.241579 L158.565966,125.301579 L167.840966,125.301579 L167.840966,121.906579 L170.290966,121.906579 Z M178.900966,111.721579 L178.900966,120.786579 L155.975966,120.786579 L155.975966,123.131579 C155.940966,130.551579 154.540966,136.921579 151.775966,142.241579 L149.780966,140.456579 C152.195966,135.976579 153.420966,130.201579 153.455966,123.131579 L153.455966,111.721579 L178.900966,111.721579 Z M494.507634,120.996579 L494.507634,136.116579 C495.627634,135.136579 496.782634,134.051579 498.042634,132.791579 L498.707634,135.486579 C496.712634,137.446579 494.577634,139.231579 492.267634,140.841579 L491.287634,138.531579 C491.812634,138.111579 492.092634,137.621579 492.092634,137.061579 L492.092634,123.411579 L486.947634,123.411579 L486.947634,120.996579 L494.507634,120.996579 Z M102.962632,113.401579 C105.552632,113.401579 107.617632,114.066579 109.087632,115.431579 C110.417632,116.656579 111.117632,118.196579 111.117632,120.016579 C111.117632,121.346579 110.802632,122.466579 110.172632,123.376579 C109.472632,124.356579 108.492632,125.091579 107.197632,125.546579 L107.197632,125.616579 C108.492632,125.931579 109.612632,126.666579 110.522632,127.786579 C111.502632,128.976579 111.992632,130.376579 111.992632,131.986579 C111.992632,134.191579 111.222632,135.976579 109.682632,137.306579 C108.072632,138.671579 105.832632,139.371579 102.962632,139.371579 C100.057632,139.371579 97.8176324,138.671579 96.2426324,137.306579 C94.7026324,135.976579 93.9326324,134.191579 93.9326324,131.986579 C93.9326324,130.376579 94.4226324,128.976579 95.4026324,127.786579 C96.3126324,126.666579 97.3976324,125.931579 98.7276324,125.616579 L98.7276324,125.546579 C97.3976324,125.091579 96.4176324,124.356579 95.7526324,123.376579 C95.1226324,122.466579 94.8076324,121.346579 94.8076324,120.016579 C94.8076324,118.196579 95.4726324,116.656579 96.8376324,115.431579 C98.3076324,114.066579 100.337632,113.401579 102.962632,113.401579 Z M78.8009651,113.891579 L78.8009651,138.881579 L75.9309651,138.881579 L75.9309651,117.391579 C74.3559651,119.001579 72.3959651,120.121579 70.0509651,120.821579 L70.0509651,117.951579 C71.1709651,117.636579 72.3609651,117.146579 73.5509651,116.446579 C74.7409651,115.676579 75.7209651,114.836579 76.5609651,113.891579 L78.8009651,113.891579 Z M370.595967,113.891579 C373.080967,113.891579 375.040967,114.451579 376.475967,115.606579 C377.945967,116.796579 378.715967,118.546579 378.715967,120.856579 C378.715967,122.256579 378.330967,123.481579 377.560967,124.566579 C376.720967,125.686579 375.600967,126.386579 374.165967,126.736579 L374.165967,126.806579 C376.545967,127.331579 377.875967,128.836579 378.155967,131.356579 L378.540967,135.206579 C378.680967,136.746579 379.135967,137.971579 379.870967,138.881579 L376.755967,138.881579 C376.195967,138.041579 375.845967,136.956579 375.740967,135.556579 L375.425967,132.231579 C375.285967,130.761579 374.760967,129.676579 373.850967,129.046579 C373.010967,128.416579 371.820967,128.136579 370.245967,128.136579 L362.685967,128.136579 L362.685967,138.881579 L359.815967,138.881579 L359.815967,113.891579 Z M316.917633,114.276579 L293.257633,114.276579 L293.257633,138.426579 L316.917633,138.426579 L316.917633,114.276579 Z M176.975966,134.016579 L170.290966,134.016579 L170.290966,138.426579 L176.975966,138.426579 L176.975966,134.016579 Z M167.840966,134.016579 L161.015966,134.016579 L161.015966,138.426579 L167.840966,138.426579 L167.840966,134.016579 Z M102.962632,126.841579 C100.932632,126.841579 99.3926324,127.331579 98.3076324,128.346579 C97.2576324,129.256579 96.7676324,130.481579 96.7676324,131.986579 C96.7676324,133.456579 97.2576324,134.681579 98.3076324,135.591579 C99.3576324,136.536579 100.932632,137.026579 102.962632,137.026579 C104.992632,137.026579 106.532632,136.536579 107.652632,135.556579 C108.632632,134.646579 109.157632,133.456579 109.157632,131.986579 C109.157632,130.481579 108.632632,129.256579 107.652632,128.346579 C106.532632,127.331579 104.957632,126.841579 102.962632,126.841579 Z M313.732633,117.461579 L313.732633,119.736579 L306.382633,119.736579 L306.382633,124.776579 L312.647633,124.776579 L312.647633,127.016579 L306.382633,127.016579 L306.382633,132.581579 L314.747633,132.581579 L314.747633,134.891579 L295.462633,134.891579 L295.462633,132.581579 L303.792633,132.581579 L303.792633,127.016579 L297.527633,127.016579 L297.527633,124.776579 L303.792633,124.776579 L303.792633,119.736579 L296.407633,119.736579 L296.407633,117.461579 L313.732633,117.461579 Z M310.512633,127.751579 C311.387633,128.941579 312.157633,130.236579 312.787633,131.601579 L310.827633,132.511579 C310.127633,130.936579 309.357633,129.571579 308.517633,128.416579 Z M176.975966,127.611579 L170.290966,127.611579 L170.290966,131.811579 L176.975966,131.811579 L176.975966,127.611579 Z M167.840966,127.611579 L161.015966,127.611579 L161.015966,131.811579 L167.840966,131.811579 L167.840966,127.611579 Z M15.3226316,127.506579 L6.67763158,127.506579 L5.83763158,130.936579 L15.3226316,130.936579 L15.3226316,127.506579 Z M246.719299,118.896579 L236.674299,118.896579 L236.674299,128.241579 L246.719299,128.241579 L246.719299,118.896579 Z M234.084299,118.896579 L224.074299,118.896579 L224.074299,128.241579 L234.084299,128.241579 L234.084299,118.896579 Z M370.245967,116.376579 L362.685967,116.376579 L362.685967,125.651579 L370.245967,125.651579 C372.065967,125.651579 373.500967,125.196579 374.480967,124.356579 C375.355967,123.551579 375.810967,122.431579 375.810967,120.961579 C375.810967,119.421579 375.355967,118.266579 374.515967,117.531579 C373.605967,116.761579 372.170967,116.376579 370.245967,116.376579 Z M26.5926316,121.836579 L17.7726316,121.836579 L17.7726316,125.196579 L26.5926316,125.196579 L26.5926316,121.836579 Z M102.962632,115.746579 C101.177632,115.746579 99.7776324,116.201579 98.7976324,117.111579 C97.9226324,117.881579 97.5026324,118.896579 97.5026324,120.121579 C97.5026324,121.381579 97.8876324,122.431579 98.6576324,123.201579 C99.5676324,124.111579 101.002632,124.601579 102.962632,124.601579 C104.887632,124.601579 106.322632,124.111579 107.267632,123.201579 C108.037632,122.431579 108.422632,121.381579 108.422632,120.121579 C108.422632,118.896579 107.967632,117.881579 107.127632,117.111579 C106.112632,116.201579 104.712632,115.746579 102.962632,115.746579 Z M434.0743,110.286579 C438.5193,115.256579 443.6293,119.176579 449.4043,122.046579 L448.0393,124.461579 C442.2293,121.416579 437.2943,117.426579 433.1643,112.526579 C429.3843,117.146579 424.3793,121.136579 418.1493,124.496579 L416.8193,122.081579 C422.9793,118.931579 428.1243,115.011579 432.2543,110.286579 Z M441.8093,121.031579 L441.8093,123.411579 L424.6243,123.411579 L424.6243,121.031579 L441.8093,121.031579 Z M505.252634,110.146579 C507.492634,113.086579 509.207634,115.641579 510.397634,117.881579 L508.402634,119.246579 C507.072634,116.796579 505.392634,114.241579 503.362634,111.511579 Z M20.0126316,110.041579 L22.4276316,110.566579 C22.1826316,111.266579 21.9026316,111.966579 21.6226316,112.631579 L31.9476316,112.631579 L31.9476316,114.836579 L25.6126316,114.836579 C26.4876316,115.956579 27.1876316,116.971579 27.7126316,117.916579 L25.4726316,118.756579 C24.7726316,117.391579 23.8976316,116.096579 22.9176316,114.836579 L20.5026316,114.836579 C19.7326316,116.166579 18.8926316,117.391579 17.9126316,118.511579 L15.7426316,117.146579 C17.7026316,115.011579 19.1026316,112.631579 20.0126316,110.041579 Z M5.55763158,110.041579 L7.97263158,110.566579 C7.65763158,111.336579 7.34263158,112.036579 7.02763158,112.736579 L16.3376316,112.736579 L16.3376316,114.941579 L10.5626316,114.941579 C11.4376316,115.991579 12.1376316,116.971579 12.6626316,117.881579 L10.3876316,118.721579 C9.68763158,117.426579 8.84763158,116.166579 7.86763158,114.941579 L5.73263158,114.941579 C4.89263158,116.201579 3.94763158,117.391579 2.89763158,118.476579 L0.692631579,117.111579 C2.93263158,114.976579 4.54263158,112.631579 5.55763158,110.041579 Z M176.345966,114.136579 L155.975966,114.136579 L155.975966,118.476579 L176.345966,118.476579 L176.345966,114.136579 Z M491.182634,110.636579 C493.492634,112.456579 495.417634,114.241579 497.027634,116.026579 L495.312634,117.776579 C493.877634,116.026579 491.917634,114.206579 489.432634,112.281579 Z M359.038632,89.4475789 C360.116632,89.4475789 360.984632,89.8115789 361.628632,90.5675789 C362.244632,91.2815789 362.552632,92.1775789 362.552632,93.2695789 C362.552632,94.3475789 362.244632,95.2435789 361.642632,95.9435789 C360.984632,96.6995789 360.116632,97.0775789 359.038632,97.0775789 C357.946632,97.0775789 357.092632,96.6995789 356.448632,95.9435789 C355.832632,95.2435789 355.524632,94.3475789 355.524632,93.2695789 C355.524632,92.1775789 355.832632,91.2815789 356.448632,90.5675789 C357.092632,89.8115789 357.946632,89.4475789 359.038632,89.4475789 Z M414.958632,89.4475789 C416.120632,89.4475789 417.002632,89.8395789 417.590632,90.6235789 C418.122632,91.3235789 418.402632,92.3175789 418.430632,93.5775789 L412.718632,93.5775789 C412.774632,94.3895789 412.984632,95.0195789 413.376632,95.4675789 C413.768632,95.9155789 414.314632,96.1395789 415.000632,96.1395789 C415.588632,96.1395789 416.078632,95.9855789 416.442632,95.6915789 C416.750632,95.4395789 416.988632,95.0615789 417.170632,94.5575789 L418.290632,94.5575789 C418.122632,95.2575789 417.800632,95.8175789 417.310632,96.2655789 C416.708632,96.7975789 415.938632,97.0775789 415.000632,97.0775789 C413.964632,97.0775789 413.124632,96.7275789 412.508632,96.0555789 C411.864632,95.3555789 411.556632,94.4315789 411.556632,93.2555789 C411.556632,92.1915789 411.850632,91.2955789 412.466632,90.5815789 C413.082632,89.8255789 413.908632,89.4475789 414.958632,89.4475789 Z M42.3826316,89.4475789 C43.5446316,89.4475789 44.4266316,89.8395789 45.0146316,90.6235789 C45.5466316,91.3235789 45.8266316,92.3175789 45.8546316,93.5775789 L40.1426316,93.5775789 C40.1986316,94.3895789 40.4086316,95.0195789 40.8006316,95.4675789 C41.1926316,95.9155789 41.7386316,96.1395789 42.4246316,96.1395789 C43.0126316,96.1395789 43.5026316,95.9855789 43.8666316,95.6915789 C44.1746316,95.4395789 44.4126316,95.0615789 44.5946316,94.5575789 L45.7146316,94.5575789 C45.5466316,95.2575789 45.2246316,95.8175789 44.7346316,96.2655789 C44.1326316,96.7975789 43.3626316,97.0775789 42.4246316,97.0775789 C41.3886316,97.0775789 40.5486316,96.7275789 39.9326316,96.0555789 C39.2886316,95.3555789 38.9806316,94.4315789 38.9806316,93.2555789 C38.9806316,92.1915789 39.2746316,91.2955789 39.8906316,90.5815789 C40.5066316,89.8255789 41.3326316,89.4475789 42.3826316,89.4475789 Z M509.292632,89.4475789 C510.454632,89.4475789 511.336632,89.8395789 511.924632,90.6235789 C512.456632,91.3235789 512.736632,92.3175789 512.764632,93.5775789 L507.052632,93.5775789 C507.108632,94.3895789 507.318632,95.0195789 507.710632,95.4675789 C508.102632,95.9155789 508.648632,96.1395789 509.334632,96.1395789 C509.922632,96.1395789 510.412632,95.9855789 510.776632,95.6915789 C511.084632,95.4395789 511.322632,95.0615789 511.504632,94.5575789 L512.624632,94.5575789 C512.456632,95.2575789 512.134632,95.8175789 511.644632,96.2655789 C511.042632,96.7975789 510.272632,97.0775789 509.334632,97.0775789 C508.298632,97.0775789 507.458632,96.7275789 506.842632,96.0555789 C506.198632,95.3555789 505.890632,94.4315789 505.890632,93.2555789 C505.890632,92.1915789 506.184632,91.2955789 506.800632,90.5815789 C507.416632,89.8255789 508.242632,89.4475789 509.292632,89.4475789 Z M451.118632,89.4475789 C452.280632,89.4475789 453.162632,89.8395789 453.750632,90.6235789 C454.282632,91.3235789 454.562632,92.3175789 454.590632,93.5775789 L448.878632,93.5775789 C448.934632,94.3895789 449.144632,95.0195789 449.536632,95.4675789 C449.928632,95.9155789 450.474632,96.1395789 451.160632,96.1395789 C451.748632,96.1395789 452.238632,95.9855789 452.602632,95.6915789 C452.910632,95.4395789 453.148632,95.0615789 453.330632,94.5575789 L454.450632,94.5575789 C454.282632,95.2575789 453.960632,95.8175789 453.470632,96.2655789 C452.868632,96.7975789 452.098632,97.0775789 451.160632,97.0775789 C450.124632,97.0775789 449.284632,96.7275789 448.668632,96.0555789 C448.024632,95.3555789 447.716632,94.4315789 447.716632,93.2555789 C447.716632,92.1915789 448.010632,91.2955789 448.626632,90.5815789 C449.242632,89.8255789 450.068632,89.4475789 451.118632,89.4475789 Z M243.838632,89.4475789 C244.874632,89.4475789 245.630632,89.7135789 246.134632,90.2595789 C246.554632,90.7355789 246.778632,91.3935789 246.778632,92.2335789 L246.778632,96.8815789 L245.728632,96.8815789 L245.728632,95.6635789 C245.448632,96.0555789 245.070632,96.3775789 244.622632,96.6295789 C244.090632,96.9235789 243.488632,97.0775789 242.816632,97.0775789 C242.088632,97.0775789 241.514632,96.8955789 241.080632,96.5315789 C240.632632,96.1535789 240.408632,95.6635789 240.408632,95.0755789 C240.408632,94.2495789 240.730632,93.6335789 241.402632,93.2135789 C241.990632,92.8215789 242.830632,92.6115789 243.922632,92.5975789 L245.658632,92.5695789 L245.658632,92.1915789 C245.658632,90.9735789 245.028632,90.3715789 243.768632,90.3715789 C243.236632,90.3715789 242.802632,90.4695789 242.466632,90.6935789 C242.088632,90.9175789 241.850632,91.2675789 241.738632,91.7295789 L240.632632,91.6455789 C240.786632,90.8895789 241.164632,90.3155789 241.752632,89.9515789 C242.284632,89.6155789 242.970632,89.4475789 243.838632,89.4475789 Z M490.134632,89.4475789 C491.030632,89.4475789 491.744632,89.6575789 492.290632,90.0775789 C492.850632,90.5115789 493.186632,91.1695789 493.312632,92.0515789 L492.206632,92.0515789 C492.108632,91.4915789 491.884632,91.0715789 491.534632,90.7915789 C491.170632,90.5115789 490.708632,90.3855789 490.134632,90.3855789 C489.434632,90.3855789 488.874632,90.6515789 488.468632,91.1835789 C488.076632,91.7015789 487.880632,92.4015789 487.880632,93.2835789 C487.880632,94.1655789 488.062632,94.8655789 488.454632,95.3695789 C488.832632,95.8735789 489.392632,96.1395789 490.120632,96.1395789 C491.352632,96.1395789 492.066632,95.5095789 492.234632,94.2635789 L493.354632,94.2635789 C493.186632,95.1875789 492.836632,95.9015789 492.276632,96.3775789 C491.730632,96.8395789 491.016632,97.0775789 490.120632,97.0775789 C489.028632,97.0775789 488.188632,96.7135789 487.586632,95.9855789 C487.012632,95.2995789 486.732632,94.4035789 486.732632,93.2975789 C486.732632,92.1915789 487.012632,91.2955789 487.586632,90.5955789 C488.202632,89.8255789 489.056632,89.4475789 490.134632,89.4475789 Z M169.194632,86.6895789 C170.300632,86.6895789 171.238632,86.9835789 171.994632,87.5715789 C172.750632,88.1595789 173.198632,88.9575789 173.338632,89.9515789 L172.232632,89.9515789 C172.092632,89.2235789 171.728632,88.6635789 171.168632,88.2715789 C170.622632,87.8935789 169.964632,87.7115789 169.180632,87.7115789 C168.018632,87.7115789 167.122632,88.1175789 166.492632,88.9295789 C165.904632,89.6855789 165.610632,90.6795789 165.610632,91.9255789 C165.610632,93.1715789 165.890632,94.1655789 166.478632,94.8935789 C167.094632,95.6635789 167.976632,96.0555789 169.152632,96.0555789 C169.950632,96.0555789 170.622632,95.8455789 171.182632,95.4255789 C171.770632,94.9775789 172.176632,94.3195789 172.372632,93.4515789 L173.478632,93.4515789 C173.254632,94.6135789 172.736632,95.5235789 171.910632,96.1675789 C171.140632,96.7695789 170.216632,97.0775789 169.152632,97.0775789 C167.598632,97.0775789 166.408632,96.5595789 165.582632,95.5375789 C164.826632,94.6135789 164.462632,93.4095789 164.462632,91.9255789 C164.462632,90.4415789 164.840632,89.2235789 165.610632,88.2715789 C166.450632,87.2075789 167.654632,86.6895789 169.194632,86.6895789 Z M338.424632,86.6895789 C339.530632,86.6895789 340.468632,86.9835789 341.224632,87.5715789 C341.980632,88.1595789 342.428632,88.9575789 342.568632,89.9515789 L341.462632,89.9515789 C341.322632,89.2235789 340.958632,88.6635789 340.398632,88.2715789 C339.852632,87.8935789 339.194632,87.7115789 338.410632,87.7115789 C337.248632,87.7115789 336.352632,88.1175789 335.722632,88.9295789 C335.134632,89.6855789 334.840632,90.6795789 334.840632,91.9255789 C334.840632,93.1715789 335.120632,94.1655789 335.708632,94.8935789 C336.324632,95.6635789 337.206632,96.0555789 338.382632,96.0555789 C339.180632,96.0555789 339.852632,95.8455789 340.412632,95.4255789 C341.000632,94.9775789 341.406632,94.3195789 341.602632,93.4515789 L342.708632,93.4515789 C342.484632,94.6135789 341.966632,95.5235789 341.140632,96.1675789 C340.370632,96.7695789 339.446632,97.0775789 338.382632,97.0775789 C336.828632,97.0775789 335.638632,96.5595789 334.812632,95.5375789 C334.056632,94.6135789 333.692632,93.4095789 333.692632,91.9255789 C333.692632,90.4415789 334.070632,89.2235789 334.840632,88.2715789 C335.680632,87.2075789 336.884632,86.6895789 338.424632,86.6895789 Z M95.6986316,86.6895789 C96.7346316,86.6895789 97.5606316,86.9555789 98.1486316,87.5015789 C98.6806316,87.9915789 98.9606316,88.6075789 98.9606316,89.3355789 C98.9606316,89.8675789 98.8346316,90.3155789 98.5826316,90.6795789 C98.3026316,91.0715789 97.9106316,91.3655789 97.3926316,91.5475789 L97.3926316,91.5755789 C97.9106316,91.7015789 98.3586316,91.9955789 98.7226316,92.4435789 C99.1146316,92.9195789 99.3106316,93.4795789 99.3106316,94.1235789 C99.3106316,95.0055789 99.0026316,95.7195789 98.3866316,96.2515789 C97.7426316,96.7975789 96.8466316,97.0775789 95.6986316,97.0775789 C94.5366316,97.0775789 93.6406316,96.7975789 93.0106316,96.2515789 C92.3946316,95.7195789 92.0866316,95.0055789 92.0866316,94.1235789 C92.0866316,93.4795789 92.2826316,92.9195789 92.6746316,92.4435789 C93.0386316,91.9955789 93.4726316,91.7015789 94.0046316,91.5755789 L94.0046316,91.5475789 C93.4726316,91.3655789 93.0806316,91.0715789 92.8146316,90.6795789 C92.5626316,90.3155789 92.4366316,89.8675789 92.4366316,89.3355789 C92.4366316,88.6075789 92.7026316,87.9915789 93.2486316,87.5015789 C93.8366316,86.9555789 94.6486316,86.6895789 95.6986316,86.6895789 Z M207.482632,89.6435789 L207.482632,96.8815789 L206.362632,96.8815789 L206.362632,89.6435789 L207.482632,89.6435789 Z M301.018632,86.8855789 C302.012632,86.8855789 302.796632,87.1095789 303.370632,87.5715789 C303.958632,88.0475789 304.266632,88.7475789 304.266632,89.6715789 C304.266632,90.2315789 304.112632,90.7215789 303.804632,91.1555789 C303.468632,91.6035789 303.020632,91.8835789 302.446632,92.0235789 L302.446632,92.0515789 C303.398632,92.2615789 303.930632,92.8635789 304.042632,93.8715789 L304.196632,95.4115789 C304.252632,96.0275789 304.434632,96.5175789 304.728632,96.8815789 L303.482632,96.8815789 C303.258632,96.5455789 303.118632,96.1115789 303.076632,95.5515789 L302.950632,94.2215789 C302.894632,93.6335789 302.684632,93.1995789 302.320632,92.9475789 C301.984632,92.6955789 301.508632,92.5835789 300.878632,92.5835789 L297.854632,92.5835789 L297.854632,96.8815789 L296.706632,96.8815789 L296.706632,86.8855789 Z M78.3606316,86.8855789 L78.3606316,96.8815789 L77.2126316,96.8815789 L77.2126316,88.2855789 C76.5826316,88.9295789 75.7986316,89.3775789 74.8606316,89.6575789 L74.8606316,88.5095789 C75.3086316,88.3835789 75.7846316,88.1875789 76.2606316,87.9075789 C76.7366316,87.5995789 77.1286316,87.2635789 77.4646316,86.8855789 L78.3606316,86.8855789 Z M399.398632,86.8855789 L399.398632,87.8515789 L398.152632,87.8515789 C397.844632,87.8515789 397.606632,87.9215789 397.466632,88.0895789 C397.326632,88.2435789 397.256632,88.4955789 397.256632,88.8455789 L397.256632,89.6435789 L399.300632,89.6435789 L399.300632,90.5815789 L397.256632,90.5815789 L397.256632,96.8815789 L396.136632,96.8815789 L396.136632,90.5815789 L394.316632,90.5815789 L394.316632,89.6435789 L396.136632,89.6435789 L396.136632,88.8175789 C396.136632,88.2015789 396.290632,87.7395789 396.598632,87.4035789 C396.920632,87.0535789 397.396632,86.8855789 398.012632,86.8855789 L399.398632,86.8855789 Z M187.694632,86.6895789 L187.694632,90.8335789 C187.946632,90.3715789 188.282632,90.0215789 188.702632,89.7835789 C189.094632,89.5595789 189.528632,89.4475789 190.018632,89.4475789 C190.858632,89.4475789 191.516632,89.6855789 191.964632,90.1895789 C192.412632,90.6795789 192.636632,91.3935789 192.636632,92.3175789 L192.636632,96.8815789 L191.516632,96.8815789 L191.516632,92.4855789 C191.516632,91.8135789 191.348632,91.2955789 191.040632,90.9315789 C190.704632,90.5675789 190.242632,90.3855789 189.640632,90.3855789 C189.080632,90.3855789 188.618632,90.6095789 188.254632,91.0575789 C187.876632,91.5055789 187.694632,92.0795789 187.694632,92.7515789 L187.694632,96.8815789 L186.574632,96.8815789 L186.574632,86.6895789 L187.694632,86.6895789 Z M21.0966316,86.6895789 L21.0966316,90.8335789 C21.3486316,90.3715789 21.6846316,90.0215789 22.1046316,89.7835789 C22.4966316,89.5595789 22.9306316,89.4475789 23.4206316,89.4475789 C24.2606316,89.4475789 24.9186316,89.6855789 25.3666316,90.1895789 C25.8146316,90.6795789 26.0386316,91.3935789 26.0386316,92.3175789 L26.0386316,96.8815789 L24.9186316,96.8815789 L24.9186316,92.4855789 C24.9186316,91.8135789 24.7506316,91.2955789 24.4426316,90.9315789 C24.1066316,90.5675789 23.6446316,90.3855789 23.0426316,90.3855789 C22.4826316,90.3855789 22.0206316,90.6095789 21.6566316,91.0575789 C21.2786316,91.5055789 21.0966316,92.0795789 21.0966316,92.7515789 L21.0966316,96.8815789 L19.9766316,96.8815789 L19.9766316,86.6895789 L21.0966316,86.6895789 Z M114.338632,87.3055789 L114.338632,89.6435789 L116.130632,89.6435789 L116.130632,90.5815789 L114.338632,90.5815789 L114.338632,95.1875789 C114.338632,95.4535789 114.380632,95.6495789 114.492632,95.7615789 C114.590632,95.8735789 114.772632,95.9435789 115.024632,95.9435789 L115.948632,95.9435789 L115.948632,96.8815789 L114.856632,96.8815789 C114.268632,96.8815789 113.834632,96.7275789 113.582632,96.4195789 C113.344632,96.1395789 113.232632,95.7335789 113.232632,95.1875789 L113.232632,90.5815789 L111.776632,90.5815789 L111.776632,89.6435789 L113.232632,89.6435789 L113.232632,87.7675789 L114.338632,87.3055789 Z M470.934632,89.4475789 C472.726632,89.4475789 473.636632,90.4415789 473.636632,92.4295789 L473.636632,96.8815789 L472.516632,96.8815789 L472.516632,92.5135789 C472.516632,91.0995789 471.872632,90.3995789 470.612632,90.3995789 C470.108632,90.3995789 469.674632,90.5815789 469.310632,90.9455789 C468.918632,91.3375789 468.708632,91.8555789 468.666632,92.5135789 L468.666632,96.8815789 L467.546632,96.8815789 L467.546632,89.6435789 L468.666632,89.6435789 L468.666632,90.7075789 C468.918632,90.3015789 469.240632,89.9935789 469.632632,89.7835789 C470.024632,89.5595789 470.458632,89.4475789 470.934632,89.4475789 Z M130.136632,86.6895789 L130.136632,90.8335789 C130.388632,90.3715789 130.724632,90.0215789 131.144632,89.7835789 C131.536632,89.5595789 131.970632,89.4475789 132.460632,89.4475789 C133.300632,89.4475789 133.958632,89.6855789 134.406632,90.1895789 C134.854632,90.6795789 135.078632,91.3935789 135.078632,92.3175789 L135.078632,96.8815789 L133.958632,96.8815789 L133.958632,92.4855789 C133.958632,91.8135789 133.790632,91.2955789 133.482632,90.9315789 C133.146632,90.5675789 132.684632,90.3855789 132.082632,90.3855789 C131.522632,90.3855789 131.060632,90.6095789 130.696632,91.0575789 C130.318632,91.5055789 130.136632,92.0795789 130.136632,92.7515789 L130.136632,96.8815789 L129.016632,96.8815789 L129.016632,86.6895789 L130.136632,86.6895789 Z M7.23063158,86.8855789 L7.23063158,87.8795789 L3.70263158,87.8795789 L3.70263158,96.8815789 L2.56863158,96.8815789 L2.56863158,87.8795789 L-0.959368421,87.8795789 L-0.959368421,86.8855789 L7.23063158,86.8855789 Z M379.036632,89.4475789 C380.828632,89.4475789 381.738632,90.4415789 381.738632,92.4295789 L381.738632,96.8815789 L380.618632,96.8815789 L380.618632,92.5135789 C380.618632,91.0995789 379.974632,90.3995789 378.714632,90.3995789 C378.210632,90.3995789 377.776632,90.5815789 377.412632,90.9455789 C377.020632,91.3375789 376.810632,91.8555789 376.768632,92.5135789 L376.768632,96.8815789 L375.648632,96.8815789 L375.648632,89.6435789 L376.768632,89.6435789 L376.768632,90.7075789 C377.020632,90.3015789 377.342632,89.9935789 377.734632,89.7835789 C378.126632,89.5595789 378.560632,89.4475789 379.036632,89.4475789 Z M434.564632,89.4475789 C434.956632,89.4475789 435.292632,89.5035789 435.558632,89.6155789 L435.558632,90.7355789 C435.194632,90.6235789 434.830632,90.5815789 434.480632,90.5815789 C433.920632,90.5815789 433.444632,90.8195789 433.066632,91.3235789 C432.674632,91.7995789 432.492632,92.3735789 432.492632,93.0455789 L432.492632,96.8815789 L431.386632,96.8815789 L431.386632,89.6435789 L432.492632,89.6435789 L432.492632,90.9035789 C432.688632,90.4835789 432.940632,90.1475789 433.248632,89.9095789 C433.626632,89.6015789 434.060632,89.4475789 434.564632,89.4475789 Z M224.610632,89.4475789 C226.402632,89.4475789 227.312632,90.4415789 227.312632,92.4295789 L227.312632,96.8815789 L226.192632,96.8815789 L226.192632,92.5135789 C226.192632,91.0995789 225.548632,90.3995789 224.288632,90.3995789 C223.784632,90.3995789 223.350632,90.5815789 222.986632,90.9455789 C222.594632,91.3375789 222.384632,91.8555789 222.342632,92.5135789 L222.342632,96.8815789 L221.222632,96.8815789 L221.222632,89.6435789 L222.342632,89.6435789 L222.342632,90.7075789 C222.594632,90.3015789 222.916632,89.9935789 223.308632,89.7835789 C223.700632,89.5595789 224.134632,89.4475789 224.610632,89.4475789 Z M245.658632,93.4095789 L243.992632,93.4375789 C242.368632,93.4655789 241.556632,93.9975789 241.556632,95.0475789 C241.556632,95.3835789 241.682632,95.6495789 241.962632,95.8735789 C242.242632,96.0835789 242.606632,96.1955789 243.054632,96.1955789 C243.740632,96.1955789 244.342632,95.9715789 244.874632,95.5235789 C245.392632,95.0895789 245.658632,94.5855789 245.658632,94.0255789 L245.658632,93.4095789 Z M359.038632,90.3855789 C358.268632,90.3855789 357.666632,90.6795789 357.246632,91.2675789 C356.854632,91.7995789 356.672632,92.4575789 356.672632,93.2695789 C356.672632,94.0675789 356.854632,94.7255789 357.246632,95.2575789 C357.666632,95.8455789 358.268632,96.1395789 359.038632,96.1395789 C359.794632,96.1395789 360.396632,95.8455789 360.844632,95.2575789 C361.222632,94.7255789 361.418632,94.0535789 361.418632,93.2695789 C361.418632,92.4575789 361.222632,91.7995789 360.844632,91.2675789 C360.396632,90.6795789 359.794632,90.3855789 359.038632,90.3855789 Z M95.6986316,92.0655789 C94.8866316,92.0655789 94.2706316,92.2615789 93.8366316,92.6675789 C93.4166316,93.0315789 93.2206316,93.5215789 93.2206316,94.1235789 C93.2206316,94.7115789 93.4166316,95.2015789 93.8366316,95.5655789 C94.2566316,95.9435789 94.8866316,96.1395789 95.6986316,96.1395789 C96.5106316,96.1395789 97.1266316,95.9435789 97.5746316,95.5515789 C97.9666316,95.1875789 98.1766316,94.7115789 98.1766316,94.1235789 C98.1766316,93.5215789 97.9666316,93.0315789 97.5746316,92.6675789 C97.1266316,92.2615789 96.4966316,92.0655789 95.6986316,92.0655789 Z M267.056632,92.7795789 L267.056632,93.7315789 L259.986632,93.7315789 L259.986632,92.7795789 L267.056632,92.7795789 Z M414.986632,90.3855789 C414.342632,90.3855789 413.824632,90.5955789 413.432632,91.0155789 C413.040632,91.4355789 412.816632,91.9955789 412.746632,92.7095789 L417.268632,92.7095789 C417.128632,91.1555789 416.358632,90.3855789 414.986632,90.3855789 Z M451.146632,90.3855789 C450.502632,90.3855789 449.984632,90.5955789 449.592632,91.0155789 C449.200632,91.4355789 448.976632,91.9955789 448.906632,92.7095789 L453.428632,92.7095789 C453.288632,91.1555789 452.518632,90.3855789 451.146632,90.3855789 Z M42.4106316,90.3855789 C41.7666316,90.3855789 41.2486316,90.5955789 40.8566316,91.0155789 C40.4646316,91.4355789 40.2406316,91.9955789 40.1706316,92.7095789 L44.6926316,92.7095789 C44.5526316,91.1555789 43.7826316,90.3855789 42.4106316,90.3855789 Z M509.320632,90.3855789 C508.676632,90.3855789 508.158632,90.5955789 507.766632,91.0155789 C507.374632,91.4355789 507.150632,91.9955789 507.080632,92.7095789 L511.602632,92.7095789 C511.462632,91.1555789 510.692632,90.3855789 509.320632,90.3855789 Z M300.878632,87.8795789 L297.854632,87.8795789 L297.854632,91.5895789 L300.878632,91.5895789 C301.606632,91.5895789 302.180632,91.4075789 302.572632,91.0715789 C302.922632,90.7495789 303.104632,90.3015789 303.104632,89.7135789 C303.104632,89.0975789 302.922632,88.6355789 302.586632,88.3415789 C302.222632,88.0335789 301.648632,87.8795789 300.878632,87.8795789 Z M95.6986316,87.6275789 C94.9846316,87.6275789 94.4246316,87.8095789 94.0326316,88.1735789 C93.6826316,88.4815789 93.5146316,88.8875789 93.5146316,89.3775789 C93.5146316,89.8815789 93.6686316,90.3015789 93.9766316,90.6095789 C94.3406316,90.9735789 94.9146316,91.1695789 95.6986316,91.1695789 C96.4686316,91.1695789 97.0426316,90.9735789 97.4206316,90.6095789 C97.7286316,90.3015789 97.8826316,89.8815789 97.8826316,89.3775789 C97.8826316,88.8875789 97.7006316,88.4815789 97.3646316,88.1735789 C96.9586316,87.8095789 96.3986316,87.6275789 95.6986316,87.6275789 Z M206.922632,86.9135789 C207.160632,86.9135789 207.356632,86.9835789 207.524632,87.1515789 C207.692632,87.2915789 207.776632,87.4875789 207.776632,87.7395789 C207.776632,87.9775789 207.692632,88.1735789 207.524632,88.3415789 C207.356632,88.4955789 207.160632,88.5795789 206.922632,88.5795789 C206.684632,88.5795789 206.488632,88.4955789 206.320632,88.3415789 C206.152632,88.1735789 206.082632,87.9775789 206.082632,87.7395789 C206.082632,87.4875789 206.152632,87.2915789 206.320632,87.1515789 C206.488632,86.9835789 206.684632,86.9135789 206.922632,86.9135789 Z M132.565789,6.88157895 C136.562587,6.88157895 139.802632,10.1216235 139.802632,14.1184211 L139.802632,63.6447368 C139.802632,67.6415344 136.562587,70.8815789 132.565789,70.8815789 L7.03947368,70.8815789 C3.04267615,70.8815789 -0.197368421,67.6415344 -0.197368421,63.6447368 L-0.197368421,14.1184211 C-0.197368421,10.1216235 3.04267615,6.88157895 7.03947368,6.88157895 L132.565789,6.88157895 Z M418.496609,7.42845395 L418.496609,20.4440789 L443.199734,20.4440789 L443.199734,26.5534539 L418.762234,26.5534539 C419.824734,43.0222039 428.324734,55.0638706 444.262234,62.6784539 L444.262234,68.2565789 C429.033067,62.5899123 418.939317,54.4440789 413.980984,43.8190789 C408.845567,54.4440789 398.574734,62.5899123 383.168484,68.2565789 L383.168484,62.6784539 C399.460151,54.7097039 407.960151,42.6680373 408.668484,26.5534539 L384.230984,26.5534539 L384.230984,20.4440789 L408.934109,20.4440789 L408.934109,7.42845395 L418.496609,7.42845395 Z M340.696495,30.5378289 L340.696495,59.7565789 C340.873579,65.2461623 338.128787,67.9024123 332.46212,67.7253289 L327.14962,67.7253289 L327.14962,62.4128289 L330.071495,62.4128289 C332.373579,62.5899123 333.436079,61.7044956 333.258995,59.7565789 L333.258995,56.0378289 L321.040245,56.0378289 L321.040245,67.9909539 L313.602745,67.9909539 L313.602745,30.5378289 L340.696495,30.5378289 Z M353.446495,37.1784539 L353.446495,47.8034539 C358.581912,46.3867873 362.123579,43.6419956 364.071495,39.5690789 L371.77462,39.5690789 C368.941287,47.1836623 362.831912,51.6107456 353.446495,52.8503289 L353.446495,58.6940789 C353.269412,60.8190789 354.420454,61.8815789 356.89962,61.8815789 L362.477745,61.8815789 C364.779829,61.8815789 365.842329,60.8190789 365.665245,58.6940789 L365.665245,57.1003289 L372.040245,57.1003289 L372.040245,60.2878289 C372.217329,65.0690789 369.472537,67.3711623 363.80587,67.1940789 L353.446495,67.1940789 C348.133995,67.3711623 345.566287,64.8919956 345.74337,59.7565789 L345.74337,37.1784539 L353.446495,37.1784539 Z M293.708882,39.5690789 L293.708882,58.6940789 C293.885965,64.5378289 290.787007,67.3711623 284.412007,67.1940789 L246.162007,67.1940789 L246.162007,39.5690789 L293.708882,39.5690789 Z M514.890472,40.1003289 L514.890472,45.9440789 L482.484222,45.9440789 C479.650889,51.0794956 475.843597,55.5951206 471.062347,59.4909539 C482.926931,59.4909539 492.489431,59.1367873 499.749847,58.4284539 C498.864431,55.7722039 497.624847,53.2044956 496.031097,50.7253289 L503.468597,50.7253289 C506.656097,55.8607456 509.046722,61.3503289 510.640472,67.1940789 L502.671722,67.1940789 C502.494639,65.7774123 502.140472,64.5378289 501.609222,63.4753289 C491.692556,64.7149123 480.536306,65.3347039 468.140472,65.3347039 L462.296722,65.3347039 L462.296722,59.4909539 C467.255056,54.7097039 470.708181,50.1940789 472.656097,45.9440789 L456.452972,45.9440789 L456.452972,40.1003289 L514.890472,40.1003289 Z M54.9786316,13.1855789 C53.5386316,13.1855789 52.1586316,13.4375789 50.8386316,13.9415789 C49.5186316,14.4455789 48.3546316,15.1775789 47.3466316,16.1375789 C46.3386316,17.0975789 45.5346316,18.2495789 44.9346316,19.5935789 C44.3346316,20.9375789 44.0346316,22.4735789 44.0346316,24.2015789 L44.0346316,54.2975789 C44.0346316,56.0255789 44.3346316,57.5615789 44.9346316,58.9055789 C45.5346316,60.2495789 46.3386316,61.4015789 47.3466316,62.3615789 C48.3546316,63.3215789 49.5186316,64.0535789 50.8386316,64.5575789 C52.1586316,65.0615789 53.5386316,65.3135789 54.9786316,65.3135789 C56.4186316,65.3135789 57.7986316,65.0615789 59.1186316,64.5575789 C60.4386316,64.0535789 61.6026316,63.3215789 62.6106316,62.3615789 C63.6186316,61.4015789 64.4226316,60.2495789 65.0226316,58.9055789 C65.6226316,57.5615789 65.9226316,56.0255789 65.9226316,54.2975789 L65.9226316,24.2015789 C65.9226316,22.4735789 65.6226316,20.9375789 65.0226316,19.5935789 C64.4226316,18.2495789 63.6186316,17.0975789 62.6106316,16.1375789 C61.6026316,15.1775789 60.4386316,14.4455789 59.1186316,13.9415789 C57.7986316,13.4375789 56.4186316,13.1855789 54.9786316,13.1855789 Z M119.490632,13.6175789 L98.4666316,13.6175789 L98.4666316,41.2655789 L104.946632,41.2655789 L104.969132,41.2217039 L105.041132,41.0867039 C105.116132,40.9479539 105.228632,40.7435789 105.378632,40.4735789 C105.522632,40.1375789 105.738632,39.8255789 106.026632,39.5375789 C106.314632,39.2495789 106.674632,38.9975789 107.106632,38.7815789 C107.538632,38.5655789 108.066632,38.4575789 108.690632,38.4575789 C109.698632,38.4575789 110.526632,38.8175789 111.174632,39.5375789 C111.822632,40.2575789 112.146632,41.1215789 112.146632,42.1295789 L112.146632,54.1535789 C112.146632,55.3535789 111.846632,56.2895789 111.246632,56.9615789 C110.646632,57.6335789 109.794632,57.9695789 108.690632,57.9695789 C107.586632,57.9695789 106.686632,57.6215789 105.990632,56.9255789 C105.294632,56.2295789 104.946632,55.2575789 104.946632,54.0095789 L104.946632,52.1375789 L97.6026316,52.1375789 L97.6026316,54.2975789 C97.6026316,56.0255789 97.9026316,57.5615789 98.5026316,58.9055789 C99.1026316,60.2495789 99.9066316,61.4015789 100.914632,62.3615789 C101.922632,63.3215789 103.086632,64.0535789 104.406632,64.5575789 C105.726632,65.0615789 107.106632,65.3135789 108.546632,65.3135789 C109.986632,65.3135789 111.366632,65.0615789 112.686632,64.5575789 C114.006632,64.0535789 115.170632,63.3215789 116.178632,62.3615789 C117.186632,61.4015789 117.990632,60.2495789 118.590632,58.9055789 C119.190632,57.5615789 119.490632,56.0255789 119.490632,54.2975789 L119.490632,41.0495789 C119.490632,38.0255789 118.710632,35.7575789 117.150632,34.2455789 C115.590632,32.7335789 113.562632,31.9775789 111.066632,31.9775789 C109.770632,31.9775789 108.594632,32.2055789 107.538632,32.6615789 C106.482632,33.1175789 105.618632,33.6815789 104.946632,34.3535789 L104.946632,20.5295789 L119.490632,20.5295789 L119.490632,13.6175789 Z M28.2666316,13.1855789 C26.7306316,13.1855789 25.2906316,13.4855789 23.9466316,14.0855789 C22.6026316,14.6855789 21.4506316,15.4895789 20.4906316,16.4975789 C19.4826316,17.5055789 18.6906316,18.6815789 18.1146316,20.0255789 C17.5386316,21.3695789 17.2506316,22.8095789 17.2506316,24.3455789 L17.2506316,28.3775789 L24.5946316,28.3775789 L24.5946316,24.2015789 C24.5946316,23.0015789 24.9186316,22.0895789 25.5666316,21.4655789 C26.2146316,20.8415789 27.0906316,20.5295789 28.1946316,20.5295789 C29.1066316,20.5295789 29.8026316,20.7095789 30.2826316,21.0695789 C30.7626316,21.4295789 31.1226316,21.8735789 31.3626316,22.4015789 C31.6026316,22.9295789 31.7346316,23.5415789 31.7586316,24.2375789 C31.7826316,24.9335789 31.7946316,25.5935789 31.7946316,26.2175789 C31.7946316,27.6095789 31.7466316,28.7735789 31.6506316,29.7095789 C31.5546316,30.6455789 31.1706316,31.7375789 30.4986316,32.9855789 L17.2506316,57.9695789 L17.2506316,64.8815789 L39.1386316,64.8815789 L39.1386316,57.5375789 L25.8906316,57.5375789 L36.6906316,36.7295789 C37.2666316,35.6255789 37.7226316,34.6895789 38.0586316,33.9215789 C38.3946316,33.1535789 38.6346316,32.3855789 38.7786316,31.6175789 C38.9226316,30.8495789 39.0186316,30.0455789 39.0666316,29.2055789 C39.1146316,28.3655789 39.1386316,27.3215789 39.1386316,26.0735789 C39.1386316,24.3455789 38.9346316,22.7135789 38.5266316,21.1775789 C38.1186316,19.6415789 37.4826316,18.2735789 36.6186316,17.0735789 C35.7066316,15.8735789 34.5666316,14.9255789 33.1986316,14.2295789 C31.8306316,13.5335789 30.1866316,13.1855789 28.2666316,13.1855789 Z M81.8346316,13.1855789 C80.2986316,13.1855789 78.8586316,13.4855789 77.5146316,14.0855789 C76.1706316,14.6855789 75.0186316,15.4895789 74.0586316,16.4975789 C73.0506316,17.5055789 72.2586316,18.6815789 71.6826316,20.0255789 C71.1066316,21.3695789 70.8186316,22.8095789 70.8186316,24.3455789 L70.8186316,28.3775789 L78.1626316,28.3775789 L78.1626316,24.2015789 C78.1626316,23.0015789 78.4866316,22.0895789 79.1346316,21.4655789 C79.7826316,20.8415789 80.6586316,20.5295789 81.7626316,20.5295789 C82.6746316,20.5295789 83.3706316,20.7095789 83.8506316,21.0695789 C84.3306316,21.4295789 84.6906316,21.8735789 84.9306316,22.4015789 C85.1706316,22.9295789 85.3026316,23.5415789 85.3266316,24.2375789 C85.3506316,24.9335789 85.3626316,25.5935789 85.3626316,26.2175789 C85.3626316,27.6095789 85.3146316,28.7735789 85.2186316,29.7095789 C85.1226316,30.6455789 84.7386316,31.7375789 84.0666316,32.9855789 L70.8186316,57.9695789 L70.8186316,64.8815789 L92.7066316,64.8815789 L92.7066316,57.5375789 L79.4586316,57.5375789 L90.2586316,36.7295789 C90.8346316,35.6255789 91.2906316,34.6895789 91.6266316,33.9215789 C91.9626316,33.1535789 92.2026316,32.3855789 92.3466316,31.6175789 C92.4906316,30.8495789 92.5866316,30.0455789 92.6346316,29.2055789 C92.6826316,28.3655789 92.7066316,27.3215789 92.7066316,26.0735789 C92.7066316,24.3455789 92.5026316,22.7135789 92.0946316,21.1775789 C91.6866316,19.6415789 91.0506316,18.2735789 90.1866316,17.0735789 C89.2746316,15.8735789 88.1346316,14.9255789 86.7666316,14.2295789 C85.3986316,13.5335789 83.7546316,13.1855789 81.8346316,13.1855789 Z M172.433726,14.8815789 L172.592075,14.8893558 C173.063139,14.9357738 173.4942,15.1877868 173.772386,15.5862512 L183.319308,29.2421729 L190.058378,38.8815789 L206.837114,62.8815789 L194.205455,62.8815789 L194.047274,62.8738177 C193.576703,62.8274884 193.145998,62.5758926 192.866795,62.1769067 L183.319308,48.520985 L173.772386,62.1769067 L173.67412,62.3043637 C173.363182,62.6698817 172.91127,62.8815789 172.433726,62.8815789 L159.802632,62.8815789 L176.581368,38.8815789 L159.802632,14.8815789 L172.433726,14.8815789 Z M285.740132,55.7722039 L254.130757,55.7722039 L254.130757,61.8815789 L282.287007,61.8815789 C284.766173,62.0586623 285.917215,60.9076206 285.740132,58.4284539 L285.740132,55.7722039 Z M54.9786316,20.5295789 C56.0346316,20.5295789 56.8986316,20.8775789 57.5706316,21.5735789 C58.2426316,22.2695789 58.5786316,23.1455789 58.5786316,24.2015789 L58.5786316,54.2975789 C58.5786316,55.3535789 58.2426316,56.2295789 57.5706316,56.9255789 C56.8986316,57.6215789 56.0346316,57.9695789 54.9786316,57.9695789 C53.9226316,57.9695789 53.0586316,57.6215789 52.3866316,56.9255789 C51.7146316,56.2295789 51.3786316,55.3535789 51.3786316,54.2975789 L51.3786316,24.2015789 C51.3786316,23.1455789 51.7146316,22.2695789 52.3866316,21.5735789 C53.0586316,20.8775789 53.9226316,20.5295789 54.9786316,20.5295789 Z M333.258995,45.9440789 L321.040245,45.9440789 L321.040245,51.5222039 L333.258995,51.5222039 L333.258995,45.9440789 Z M285.740132,44.8815789 L254.130757,44.8815789 L254.130757,50.9909539 L285.740132,50.9909539 L285.740132,44.8815789 Z M221.802632,35.2452153 L221.802632,37.7130147 C221.802632,41.1696302 219.581579,43.972488 216.841993,43.972488 L204.699183,43.972488 L204.699183,41.5040828 C204.699183,38.0474672 206.919756,35.2452153 209.659822,35.2452153 L221.802632,35.2452153 Z M333.258995,35.5847039 L321.040245,35.5847039 L321.040245,41.1628289 L333.258995,41.1628289 L333.258995,35.5847039 Z M253.068257,6.89720395 C252.891173,7.25137061 252.802632,7.60553728 252.802632,7.95970395 C252.625548,8.66803728 252.271382,9.55345395 251.740132,10.6159539 L269.802632,10.6159539 L269.802632,15.1315789 L259.708882,15.1315789 L259.708882,17.5222039 C259.708882,19.4701206 259.62034,20.7982456 259.443257,21.5065789 L271.396382,21.5065789 L271.396382,26.0222039 L260.240132,26.0222039 C262.542215,30.0951206 266.260965,32.9284539 271.396382,34.5222039 L271.396382,38.7722039 C264.313048,37.3555373 259.177632,34.6107456 255.990132,30.5378289 C252.802632,34.4336623 247.40159,37.1784539 239.787007,38.7722039 L239.787007,34.5222039 C245.984923,32.5742873 249.703673,29.7409539 250.943257,26.0222039 L239.521382,26.0222039 L239.521382,21.5065789 L252.005757,21.5065789 C252.18284,20.6211623 252.271382,19.6472039 252.271382,18.5847039 L252.271382,15.1315789 L248.818257,15.1315789 C246.33909,17.0794956 243.15159,18.3190789 239.255757,18.8503289 L239.255757,15.3972039 C243.15159,13.8034539 245.365132,10.9701206 245.896382,6.89720395 L253.068257,6.89720395 Z M206.837114,14.8815789 L190.932515,38.1543062 L184.032517,28.0564246 L192.530787,15.619856 L192.631682,15.4864683 C192.950666,15.1038635 193.412093,14.8815789 193.901643,14.8815789 L206.837114,14.8815789 Z M297.958882,10.6159539 L297.958882,27.3503289 C297.958882,32.6628289 295.302632,35.3190789 289.990132,35.3190789 L273.787007,35.3190789 L273.787007,10.6159539 L297.958882,10.6159539 Z M353.446495,7.42845395 L353.446495,16.7253289 C358.404829,15.6628289 361.946495,13.2722039 364.071495,9.55345395 L371.508995,9.55345395 C368.852745,16.6367873 362.831912,20.7097039 353.446495,21.7722039 L353.446495,26.0222039 C353.269412,28.5013706 354.420454,29.6524123 356.89962,29.4753289 L362.477745,29.4753289 C364.779829,29.6524123 365.842329,28.5013706 365.665245,26.0222039 L365.665245,24.4284539 L371.77462,24.4284539 L371.77462,27.3503289 C371.951704,32.6628289 369.295454,35.2305373 363.80587,35.0534539 L353.446495,35.0534539 C347.956912,35.2305373 345.300662,32.4857456 345.477745,26.8190789 L345.477745,7.42845395 L353.446495,7.42845395 Z M490.187347,6.63157895 C496.031097,15.8399123 504.885264,22.7461623 516.749847,27.3503289 L516.749847,32.6628289 C511.437347,31.0690789 506.833181,29.2982456 502.937347,27.3503289 L502.937347,32.9284539 L467.874847,32.9284539 L467.874847,27.3503289 C464.333181,29.2982456 459.906097,31.0690789 454.593597,32.6628289 L454.593597,27.3503289 C466.104014,22.7461623 474.869639,15.8399123 480.890472,6.63157895 L490.187347,6.63157895 Z M290.787007,15.3972039 L280.958882,15.3972039 L280.958882,30.5378289 L287.333882,30.5378289 C289.635965,30.5378289 290.787007,29.2982456 290.787007,26.8190789 L290.787007,15.3972039 Z M331.39962,7.16282895 C327.857954,13.0065789 324.050662,17.5222039 319.977745,20.7097039 C326.529829,20.7097039 331.222537,20.5326206 334.05587,20.1784539 C333.701704,18.7617873 332.727745,16.6367873 331.133995,13.8034539 L337.77462,13.8034539 C340.43087,18.0534539 342.55587,22.8347039 344.14962,28.1472039 L336.446495,28.1472039 L335.915245,25.4909539 C330.779829,26.1992873 322.633995,26.5534539 311.477745,26.5534539 L311.477745,20.7097039 C315.904829,16.8138706 319.535037,12.2982456 322.36837,7.16282895 L331.39962,7.16282895 Z M485.671722,14.8659539 C480.359222,20.3555373 474.604014,24.5169956 468.406097,27.3503289 L502.937347,27.3503289 C496.739431,24.5169956 490.984222,20.3555373 485.671722,14.8659539 Z" id="形状结合"></path>
                </g>
            </g>
        </g>
    </g>
</svg>