<?xml version="1.0" encoding="UTF-8"?>
<svg width="87px" height="36px" viewBox="0 0 87 36" version="1.1" xmlns="http://www.w3.org/2000/svg" xmlns:xlink="http://www.w3.org/1999/xlink">
    <title>logo</title>
    <g id="页面-2" stroke="none" stroke-width="1" fill="none" fill-rule="evenodd">
        <g id="切片" transform="translate(-70, -56)" fill="#FFFFFF">
            <g id="logo" transform="translate(70, 56)">
                <path d="M0.772563828,31.8200961 L0.772563828,31.2733409 C1.28497861,31.2231557 1.64235508,31.1392934 1.84469322,31.0217543 C2.04703137,30.9042151 2.19812803,30.6262152 2.29798322,30.1877545 L2.85769783,30.1877545 L2.85769783,35.8375582 L2.10090061,35.8375582 L2.10090061,31.8200961 L0.772563828,31.8200961 Z M10.2984488,32.5411791 C10.6111532,32.5411791 10.8555356,32.4533549 11.0315961,32.2777064 C11.2076566,32.102058 11.2956868,31.8927327 11.2956868,31.6497304 C11.2956868,31.438424 11.2115982,31.2442863 11.0434211,31.0673172 C10.8752439,30.8903481 10.6190365,30.8018636 10.2747989,30.8018636 C9.93318903,30.8018636 9.68617882,30.8903481 9.53376827,31.0673172 C9.38135772,31.2442863 9.30515245,31.4516307 9.30515245,31.6893503 C9.30515245,31.9561246 9.40369375,32.1647896 9.60077636,32.3153454 C9.79785897,32.4659012 10.0304164,32.5411791 10.2984488,32.5411791 Z M10.341807,35.350233 C10.670278,35.350233 10.9429089,35.2610881 11.1596998,35.0827983 C11.3764907,34.9045086 11.4848861,34.6383947 11.4848861,34.2844565 C11.4848861,33.9173117 11.373206,33.6386515 11.1498457,33.4484757 C10.9264854,33.2583 10.6400587,33.1632122 10.2905655,33.1632122 C9.9515834,33.1632122 9.67501081,33.260281 9.46084771,33.4544187 C9.24668461,33.6485564 9.13960305,33.9173117 9.13960305,34.2606845 C9.13960305,34.5565134 9.23748742,34.8120621 9.43325614,35.0273304 C9.62902487,35.2425988 9.93187514,35.350233 10.341807,35.350233 Z M9.33274401,32.8145567 C9.1356614,32.7300341 8.98193697,32.6309843 8.87157071,32.5174071 C8.66397702,32.3061007 8.56018018,32.0314025 8.56018018,31.6933123 C8.56018018,31.2706996 8.71259073,30.9075168 9.01741184,30.6037639 C9.32223294,30.300011 9.75450079,30.1481346 10.3142154,30.1481346 C10.8555356,30.1481346 11.2799202,30.2914267 11.5873691,30.5780109 C11.8948179,30.8645952 12.0485424,31.1993837 12.0485424,31.5823765 C12.0485424,31.9363146 11.9591982,32.2228989 11.78051,32.4421292 C11.6806548,32.5662717 11.5256165,32.6877728 11.3153951,32.8066327 C11.5492664,32.9149272 11.7332102,33.0390697 11.8672264,33.1790601 C12.1168643,33.4431931 12.2416833,33.7865659 12.2416833,34.2091786 C12.2416833,34.7083899 12.07482,35.1316629 11.7410935,35.4789978 C11.4073669,35.8263326 10.9356826,36 10.3260404,36 C9.77683682,36 9.31237881,35.8501046 8.93266631,35.5503137 C8.55295382,35.2505228 8.36309757,34.8153637 8.36309757,34.2448366 C8.36309757,33.9093877 8.44455839,33.6195018 8.60748001,33.3751788 C8.77040163,33.1308559 9.0121563,32.9439818 9.33274401,32.8145567 Z M16.8680946,30.4096262 L17.5854753,30.4096262 L17.5854753,31.5942624 L18.2594978,31.5942624 L18.2594978,32.1766756 L17.5854753,32.1766756 L17.5854753,34.9461095 C17.5854753,35.094024 17.6354029,35.1930738 17.7352581,35.2432591 C17.7904412,35.2723137 17.8824131,35.286841 18.0111738,35.286841 C18.0453347,35.286841 18.0821235,35.2861807 18.12154,35.28486 C18.1609565,35.2835394 18.2069425,35.2802377 18.2594978,35.2749551 L18.2594978,35.8375582 C18.178037,35.8613302 18.0932915,35.8784988 18.0052613,35.8890642 C17.917231,35.8996295 17.8219745,35.9049121 17.7194915,35.9049121 C17.3883927,35.9049121 17.1637185,35.8197293 17.045469,35.6493635 C16.9272194,35.4789978 16.8680946,35.2577864 16.8680946,34.9857295 L16.8680946,32.1766756 L16.2965551,32.1766756 L16.2965551,31.5942624 L16.8680946,31.5942624 L16.8680946,30.4096262 Z M22.5824019,29.9975788 L23.2918993,29.9975788 L23.2918993,32.1687516 C23.4600765,31.9548039 23.6111732,31.8042481 23.7451893,31.7170843 C23.9738052,31.5665285 24.258918,31.4912506 24.6005279,31.4912506 C25.2127978,31.4912506 25.6279852,31.7065189 25.8460899,32.1370557 C25.9643395,32.372134 26.0234643,32.6983382 26.0234643,33.1156682 L26.0234643,35.8375582 L25.2942586,35.8375582 L25.2942586,33.1632122 C25.2942586,32.8515353 25.2548421,32.6230603 25.1760091,32.4777872 C25.0472484,32.2453502 24.8054938,32.1291317 24.4507451,32.1291317 C24.156435,32.1291317 23.8897166,32.2308228 23.6505897,32.4342052 C23.4114628,32.6375876 23.2918993,33.021901 23.2918993,33.5871455 L23.2918993,35.8375582 L22.5824019,35.8375582 L22.5824019,29.9975788 Z M39.0760396,29.858909 C39.8091869,29.858909 40.3780987,30.0530467 40.782775,30.4413221 C41.1874513,30.8295976 41.4121255,31.2706996 41.4567975,31.7646282 L40.692117,31.7646282 C40.6054007,31.3895594 40.4326249,31.0924098 40.1737897,30.8731795 C39.9149546,30.6539492 39.5516656,30.544334 39.0839229,30.544334 C38.5136972,30.544334 38.0531809,30.7457354 37.7023738,31.1485381 C37.3515668,31.5513408 37.1761633,32.1687516 37.1761633,33.0007704 C37.1761633,33.6822334 37.3344863,34.2349316 37.6511323,34.658865 C37.9677784,35.0827983 38.4401197,35.294765 39.0681563,35.294765 C39.6462653,35.294765 40.0864164,35.0715727 40.3886098,34.625188 C40.5489036,34.3901097 40.6684671,34.0810741 40.7473001,33.6980814 L41.5119807,33.6980814 C41.4436587,34.3108698 41.2176706,34.8246084 40.8340165,35.2392971 C40.3741571,35.7385084 39.7540038,35.988114 38.9735566,35.988114 C38.300848,35.988114 37.7358779,35.783411 37.2786462,35.3740049 C36.6768873,34.8325324 36.3760079,33.9965516 36.3760079,32.8660626 C36.3760079,32.0076305 36.6019959,31.3037162 37.053972,30.7543197 C37.5427369,30.1573792 38.2167594,29.858909 39.0760396,29.858909 Z M45.9846675,29.9975788 L46.6941649,29.9975788 L46.6941649,32.1687516 C46.8623421,31.9548039 47.0134387,31.8042481 47.1474549,31.7170843 C47.3760707,31.5665285 47.6611836,31.4912506 48.0027934,31.4912506 C48.6150634,31.4912506 49.0302508,31.7065189 49.2483555,32.1370557 C49.3666051,32.372134 49.4257299,32.6983382 49.4257299,33.1156682 L49.4257299,35.8375582 L48.6965242,35.8375582 L48.6965242,33.1632122 C48.6965242,32.8515353 48.6571077,32.6230603 48.5782747,32.4777872 C48.449514,32.2453502 48.2077594,32.1291317 47.8530107,32.1291317 C47.5587006,32.1291317 47.2919822,32.2308228 47.0528553,32.4342052 C46.8137284,32.6375876 46.6941649,33.021901 46.6941649,33.5871455 L46.6941649,35.8375582 L45.9846675,35.8375582 L45.9846675,29.9975788 Z M54.0876161,31.6140724 L54.8089384,31.6140724 L54.8089384,35.8375582 L54.0876161,35.8375582 L54.0876161,31.6140724 Z M54.0876161,30.0173888 L54.8089384,30.0173888 L54.8089384,30.8256356 L54.0876161,30.8256356 L54.0876161,30.0173888 Z M59.4944745,31.5942624 L60.168497,31.5942624 L60.168497,32.1964856 C60.3682074,31.9482006 60.5797427,31.7699109 60.803103,31.6616163 C61.0264633,31.5533218 61.2747874,31.4991746 61.5480753,31.4991746 C62.1472064,31.4991746 62.5518827,31.7091603 62.7621041,32.1291317 C62.8777259,32.3589273 62.9355368,32.6877728 62.9355368,33.1156682 L62.9355368,35.8375582 L62.2142145,35.8375582 L62.2142145,33.1632122 C62.2142145,32.9043619 62.1761119,32.6956968 62.0999066,32.5372171 C61.9737737,32.2730841 61.7451579,32.1410176 61.4140591,32.1410176 C61.2458819,32.1410176 61.1079241,32.1581863 61.0001856,32.1925236 C60.8057308,32.2506328 60.6349259,32.3668513 60.4877708,32.5411791 C60.3695213,32.6811695 60.2926591,32.8257823 60.2571842,32.9750174 C60.2217093,33.1242525 60.2039719,33.3375399 60.2039719,33.6148795 L60.2039719,35.8375582 L59.4944745,35.8375582 L59.4944745,31.5942624 Z M68.141371,34.7083899 C68.141371,34.9144136 68.2162624,35.0768554 68.3660452,35.1957152 C68.515828,35.314575 68.6932023,35.3740049 68.8981682,35.3740049 C69.1478062,35.3740049 69.3895609,35.3158957 69.6234322,35.1996772 C70.0175975,35.0068601 70.2146801,34.6912212 70.2146801,34.2527606 L70.2146801,33.6782714 C70.1279637,33.7337393 70.0162836,33.7799626 69.8796396,33.8169412 C69.7429957,33.8539198 69.6089795,33.8803331 69.4775911,33.8961811 L69.047951,33.951649 C68.7904297,33.9859863 68.5972888,34.0401335 68.4685282,34.1140908 C68.2504234,34.2382332 68.141371,34.436333 68.141371,34.7083899 Z M69.8599314,33.266224 C70.022853,33.2450934 70.1319054,33.1764188 70.1870885,33.0602003 C70.2186217,32.9968084 70.2343883,32.9056825 70.2343883,32.7868227 C70.2343883,32.5438204 70.1483289,32.3675116 69.9762101,32.2578965 C69.8040913,32.1482813 69.557738,32.0934737 69.2371503,32.0934737 C68.866635,32.0934737 68.6038582,32.1938442 68.4488199,32.3945853 C68.3621035,32.5055211 68.3056065,32.6706042 68.2793288,32.8898346 L67.6171313,32.8898346 C67.6302701,32.3668513 67.7991042,32.0030082 68.1236336,31.7983051 C68.4481629,31.5936021 68.8245907,31.4912506 69.2529169,31.4912506 C69.7495651,31.4912506 70.1529275,31.5863385 70.4630042,31.7765142 C70.770453,31.9666899 70.9241775,32.2625188 70.9241775,32.6640009 L70.9241775,35.1085513 C70.9241775,35.1825085 70.9392871,35.2419384 70.9695065,35.286841 C70.9997258,35.3317436 71.0634492,35.3541949 71.1606766,35.3541949 C71.1922098,35.3541949 71.2276847,35.3522139 71.2671012,35.348252 C71.3065177,35.34429 71.348562,35.338347 71.3932341,35.330423 L71.3932341,35.8573682 C71.2828678,35.8890642 71.1987792,35.9088741 71.1409683,35.9167981 C71.0831574,35.9247221 71.0043244,35.9286841 70.9044692,35.9286841 C70.6600868,35.9286841 70.4827124,35.8415202 70.3723462,35.6671925 C70.3145353,35.574746 70.2738049,35.4440001 70.2501549,35.2749551 C70.1056277,35.4651308 69.898034,35.6302139 69.6273739,35.7702043 C69.3567138,35.9101948 69.0584621,35.98019 68.7326188,35.98019 C68.3410814,35.98019 68.0211506,35.8606699 67.7728265,35.6216296 C67.5245025,35.3825892 67.4003404,35.0834587 67.4003404,34.7242379 C67.4003404,34.3306798 67.5225316,34.0256062 67.7669141,33.8090172 C68.0112965,33.5924282 68.3318842,33.4590411 68.7286772,33.4088558 L69.8599314,33.266224 Z M75.5151139,33.2107561 L77.4938233,33.2107561 L77.4938233,33.943725 L75.5151139,33.943725 L75.5151139,33.2107561 Z M84.7887331,32.6838109 C85.1566207,32.6838109 85.447646,32.6098536 85.6618091,32.4619392 C85.8759722,32.3140247 85.9830537,32.0472504 85.9830537,31.6616163 C85.9830537,31.2469276 85.833271,30.9643054 85.5337054,30.8137496 C85.3734115,30.7345097 85.1592484,30.6948898 84.8912161,30.6948898 L82.9755731,30.6948898 L82.9755731,32.6838109 L84.7887331,32.6838109 Z M82.1911843,30.0173888 L84.8715078,30.0173888 C85.3129729,30.0173888 85.6769188,30.0821013 85.9633455,30.2115265 C86.5072935,30.4598114 86.7792675,30.9180821 86.7792675,31.5863385 C86.7792675,31.9349939 86.7076608,32.2202575 86.5644474,32.4421292 C86.4212341,32.6640009 86.2208668,32.8422906 85.9633455,32.9769984 C86.1893335,33.069445 86.3594815,33.1909461 86.4737894,33.3415019 C86.5880973,33.4920577 86.6518207,33.7363806 86.6649596,34.0744708 L86.6925511,34.8549837 C86.7004344,35.0768554 86.7188288,35.2419384 86.7477343,35.350233 C86.7950341,35.535126 86.8791227,35.6539858 87,35.7068124 L87,35.8375582 L86.0382369,35.8375582 C86.0119592,35.787373 85.990937,35.7226604 85.9751704,35.6434205 C85.9594038,35.5641806 85.946265,35.4109835 85.9357539,35.1838292 L85.8884541,34.2131406 C85.8700597,33.8327892 85.7294741,33.5779009 85.4666973,33.4484757 C85.3169145,33.3771598 85.0817293,33.3415019 84.7611416,33.3415019 L82.9755731,33.3415019 L82.9755731,35.8375582 L82.1911843,35.8375582 L82.1911843,30.0173888 Z M66.5981553,0 C72.0482106,0 76.6564277,3.61914067 78.1757018,8.59708528 L72.3723334,8.59708528 C71.1719498,6.67942513 69.0352726,5.40199995 66.5981553,5.40199995 C62.8427916,5.40199995 59.7976341,8.43294376 59.7976341,12.1713846 C59.7976341,15.9098254 62.8427916,18.9402156 66.5981553,18.9402156 C69.4464157,18.9402156 71.883533,17.1966618 72.8963825,14.7240206 L65.82351,14.7240206 C65.82351,12.5414642 67.5842928,10.7710609 69.7559434,10.7710609 L78.6248474,10.7710609 C78.6771697,11.2311 78.7069108,11.6972287 78.7069108,12.1713846 C78.7069108,13.0468983 78.613006,13.900545 78.4381394,14.7240206 C77.2710769,20.2204088 72.4141912,24.3424924 66.5981553,24.3424924 C59.9105401,24.3424924 54.4893998,18.8934367 54.4893998,12.1713846 C54.4893998,5.4490557 59.9105401,0 66.5981553,0 Z M45.7389328,0.676180344 L45.8458277,0.683523269 C46.1267481,0.722343768 46.3706217,0.912345039 46.4818255,1.18790755 L55.8348171,24.3424924 L50.3766269,24.3424924 L50.2673484,24.334832 C49.9803698,24.2943466 49.7330321,24.0963592 49.6260015,23.8119076 L47.6980707,18.6757778 L40.2984175,18.6757778 L40.3032201,18.4731133 C40.4052776,16.3246858 42.1210612,14.615961 44.2222165,14.615961 L46.1736217,14.615961 L43.4072439,7.24634629 L37.1876578,23.8119076 L37.1411509,23.9143852 C37.000668,24.1761108 36.7326552,24.3424924 36.4375847,24.3424924 L30.9445974,24.3424924 L40.2984175,1.18790755 L40.3461412,1.08871046 C40.4889668,0.835563558 40.7523154,0.676180344 41.0407578,0.676180344 L45.7389328,0.676180344 Z M6.32294881,0.676180344 L6.43576037,0.683970628 C6.65840142,0.714898523 6.86043846,0.836510924 6.99306315,1.02361769 L11.7721183,7.7566449 L15.1456023,12.5093364 L23.5448024,24.3424924 L17.2215707,24.3424924 L17.1088779,24.3347171 C16.8864645,24.3038442 16.684566,24.1824067 16.5514564,23.995055 L11.7721183,17.2620278 L6.99306315,23.995055 L6.92116272,24.0831239 C6.76664751,24.2478194 6.55061716,24.3424924 6.32294881,24.3424924 L0,24.3424924 L8.39920007,12.5093364 L0,0.676180344 L6.32294881,0.676180344 Z M30.9445974,10.8188855 L30.9445974,11.9661012 C30.9445974,13.5729919 29.8089448,14.8759676 28.4081593,14.8759676 L22.1993851,14.8759676 L22.1993851,13.7284702 C22.1993851,12.1215795 23.3347922,10.8188855 24.7358232,10.8188855 L30.9445974,10.8188855 Z M23.5448024,0.676180344 L15.5689657,12.1712462 L12.1087555,7.18361353 L16.3704669,1.04083651 L16.4443956,0.94849742 C16.6030976,0.775765553 16.8241148,0.676180344 17.057924,0.676180344 L23.5448024,0.676180344 Z M81.1552714,0.676180344 C80.9176048,0.676180344 80.7250367,0.874756788 80.7250367,1.12019156 L80.7250367,1.12019156 L80.7250367,23.8987669 C80.7250367,24.1439159 80.9176048,24.3424924 81.1552714,24.3424924 L81.1552714,24.3424924 L85.6770245,24.3424924 C85.9141377,24.3424924 86.1067058,24.1439159 86.1067058,23.8987669 L86.1067058,23.8987669 L86.1067058,1.12019156 C86.1067058,0.874756788 85.9141377,0.676180344 85.6770245,0.676180344 L85.6770245,0.676180344 L81.1552714,0.676180344 Z" id="形状结合备份" fill-rule="nonzero"></path>
            </g>
        </g>
    </g>
</svg>