<?xml version="1.0" encoding="UTF-8"?>
<svg width="16px" height="16px" viewBox="0 0 16 16" version="1.1" xmlns="http://www.w3.org/2000/svg" xmlns:xlink="http://www.w3.org/1999/xlink">
    <title>place</title>
    <g id="页面-1" stroke="none" stroke-width="1" fill="none" fill-rule="evenodd" fill-opacity="0.664663462">
        <g id="MacBook-Pro-13&quot;备份" transform="translate(-287, -417)" fill="#FFFFFF">
            <g id="编组" transform="translate(288, 412)">
                <g transform="translate(0, 5)" fill-rule="nonzero" id="place">
                    <path d="M7,0 C10.8657143,0 14,3.06730621 14,6.8504104 C14,9.18164699 12.1085714,12.0301595 8.36928572,15.4693451 C7.59958206,16.176885 6.40041794,16.176885 5.63071428,15.4693451 C1.89142857,12.0301595 0,9.18164699 0,6.8504104 C0,3.06730621 3.13428571,0 7,0 Z M7,1.11843435 C3.76518932,1.11843435 1.14285713,3.68472744 1.14285713,6.8504104 C1.14285713,8.78530181 2.88571428,11.4101274 6.41285714,14.6542861 C6.74281429,14.9578928 7.25718571,14.9578928 7.58714286,14.6542861 C11.1142857,11.4101274 12.8571429,8.78530181 12.8571429,6.8504104 C12.8571429,3.68472744 10.2348107,1.11843435 7,1.11843435 Z M7,3.6 C8.81929094,3.6 10.2941176,5.0326888 10.2941176,6.8 C10.2941176,8.5673112 8.81929094,10 7,10 C5.18070906,10 3.70588235,8.5673112 3.70588235,6.8 C3.70588235,5.0326888 5.18070906,3.6 7,3.6 Z M7,4.8 C5.86294316,4.8 4.94117647,5.6954305 4.94117647,6.8 C4.94117647,7.9045695 5.86294316,8.8 7,8.8 C8.13705684,8.8 9.05882353,7.9045695 9.05882353,6.8 C9.05882353,5.6954305 8.13705684,4.8 7,4.8 Z"></path>
                </g>
            </g>
        </g>
    </g>
</svg>